# Blender 5.1.1
# www.blender.org
mtllib Andarilho.mtl
o Cube.001
v 0.163426 1.044039 -0.078214
v 0.163426 1.044039 -0.078214
v 0.163426 1.044039 -0.078214
v 0.163326 0.852675 -0.040083
v 0.163326 0.852675 -0.040083
v 0.163326 0.852675 -0.040083
v 0.163646 1.011957 -0.162794
v 0.163646 1.011957 -0.162794
v 0.163646 1.011957 -0.162794
v 0.163646 0.884757 -0.162794
v 0.163646 0.884757 -0.162794
v 0.163646 0.884757 -0.162794
v 0.163103 1.205997 0.045493
v 0.163103 1.205997 0.045493
v 0.163255 1.341597 -0.012936
v 0.163255 1.341597 -0.012936
v 0.048820 1.398967 0.337038
v 0.048820 1.398967 0.337038
v 0.048820 1.398967 0.337038
v 0.163052 1.447958 0.064955
v 0.163052 1.447958 0.064955
v 0.049043 1.475334 0.251730
v 0.049043 1.475334 0.251730
v 0.049043 1.475334 0.251730
v 0.162408 1.356665 0.311792
v 0.162408 1.356665 0.311792
v 0.162749 1.480051 0.180819
v 0.162749 1.480051 0.180819
v 0.048670 1.412832 0.394665
v 0.048670 1.412832 0.394665
v 0.048670 1.412832 0.394665
v 0.048793 1.517082 0.347322
v 0.048793 1.517082 0.347322
v 0.048793 1.517082 0.347322
v 0.048506 1.413337 0.457615
v 0.048506 1.413337 0.457615
v 0.048506 1.413337 0.457615
v 0.048506 1.413337 0.457615
v 0.048506 1.527833 0.457357
v 0.048506 1.527833 0.457357
v 0.048506 1.527833 0.457357
v 0.048506 1.527833 0.457357
v 0.093223 1.361798 0.495982
v 0.093223 1.361798 0.495982
v 0.093223 1.361798 0.495982
v 0.093223 1.361798 0.495982
v 0.093225 1.579544 0.495490
v 0.093225 1.579544 0.495490
v 0.093225 1.579544 0.495490
v 0.093225 1.579544 0.495490
v 0.092619 1.362320 0.727314
v 0.092619 1.362320 0.727314
v 0.092619 1.362320 0.727314
v 0.092621 1.580066 0.726822
v 0.092621 1.580066 0.726822
v 0.092621 1.580066 0.726822
v 0.000426 0.884757 -0.163220
v 0.000426 0.884757 -0.163220
v 0.000426 0.884757 -0.163220
v 0.000205 1.044039 -0.078640
v 0.000205 1.044039 -0.078640
v 0.000426 1.011957 -0.163220
v 0.000426 1.011957 -0.163220
v 0.000106 0.852674 -0.040509
v 0.000106 0.852674 -0.040509
v -0.000056 1.147949 0.021578
v -0.000056 1.147949 0.021578
v 0.000180 1.347219 -0.068782
v 0.000180 1.347219 -0.068782
v -0.001028 1.348058 0.393776
v -0.001028 1.348058 0.393776
v -0.000508 1.526243 0.194732
v -0.000508 1.526243 0.194732
v -0.000097 1.484789 0.037239
v -0.000097 1.484789 0.037239
v -0.000879 1.398966 0.336908
v -0.000879 1.398966 0.336908
v -0.000657 1.475334 0.251600
v -0.000657 1.475334 0.251600
v -0.001030 1.412831 0.394535
v -0.001030 1.412831 0.394535
v -0.000906 1.517082 0.347193
v -0.000906 1.517082 0.347193
v -0.001194 1.413336 0.457486
v -0.001194 1.413336 0.457486
v -0.001193 1.527833 0.457227
v -0.001193 1.527833 0.457227
v -0.001294 1.361798 0.495735
v -0.001294 1.361798 0.495735
v -0.001293 1.579544 0.495243
v -0.001293 1.579544 0.495243
v -0.001898 1.362320 0.727067
v -0.001898 1.362320 0.727067
v -0.001896 1.580066 0.726576
v -0.001896 1.580066 0.726576
v 0.162891 1.465056 0.126683
v 0.162891 1.465056 0.126683
v -0.000303 1.505516 0.115986
v 0.163400 1.347220 -0.068356
v 0.163400 1.347220 -0.068356
v 0.163400 1.347220 -0.068356
v 0.163164 1.147949 0.022004
v 0.163164 1.147949 0.022004
v 0.163164 1.147949 0.022004
v 0.162192 1.348058 0.394203
v 0.162192 1.348058 0.394203
v 0.162192 1.348058 0.394203
v 0.162917 1.505516 0.116412
v 0.162917 1.505516 0.116412
v 0.163123 1.484789 0.037666
v 0.163123 1.484789 0.037666
v 0.163123 1.484789 0.037666
v 0.162712 1.526243 0.195158
v 0.162712 1.526243 0.195158
v 0.162712 1.526243 0.195158
v 0.163255 1.341597 -0.012936
v 0.163255 1.341597 -0.012936
v 0.163255 1.341597 -0.012936
v 0.163103 1.205998 0.045493
v 0.163103 1.205998 0.045493
v 0.163103 1.205998 0.045493
v 0.162408 1.356666 0.311792
v 0.162408 1.356666 0.311792
v 0.162408 1.356666 0.311792
v 0.162891 1.465056 0.126683
v 0.162891 1.465056 0.126683
v 0.163052 1.447958 0.064955
v 0.163052 1.447958 0.064955
v 0.163052 1.447958 0.064955
v 0.162749 1.480051 0.180819
v 0.162749 1.480051 0.180819
v 0.162749 1.480051 0.180819
v 0.262277 1.336242 -0.029849
v 0.262277 1.336242 -0.029849
v 0.262277 1.336242 -0.029849
v 0.262277 1.336242 -0.029849
v 0.262105 1.183058 0.036158
v 0.262105 1.183058 0.036158
v 0.262105 1.183058 0.036158
v 0.262105 1.183058 0.036158
v 0.261320 1.353265 0.336992
v 0.261320 1.353265 0.336992
v 0.261320 1.353265 0.336992
v 0.261320 1.353265 0.336992
v 0.261865 1.475712 0.127878
v 0.261865 1.475712 0.127878
v 0.262047 1.456396 0.058144
v 0.262047 1.456396 0.058144
v 0.262047 1.456396 0.058144
v 0.262047 1.456396 0.058144
v 0.261706 1.492651 0.189033
v 0.261706 1.492651 0.189033
v 0.261706 1.492651 0.189033
v 0.261706 1.492651 0.189033
v 0.461517 1.337761 -0.024458
v 0.461517 1.337761 -0.024458
v 0.461517 1.337761 -0.024458
v 0.461517 1.337761 -0.024458
v 0.461350 1.189564 0.039399
v 0.461350 1.189564 0.039399
v 0.461350 1.189564 0.039399
v 0.461350 1.189564 0.039399
v 0.460591 1.354230 0.330437
v 0.460591 1.354230 0.330437
v 0.460591 1.354230 0.330437
v 0.460591 1.354230 0.330437
v 0.461119 1.472689 0.128132
v 0.461119 1.472689 0.128132
v 0.461295 1.454003 0.060670
v 0.461295 1.454003 0.060670
v 0.461295 1.454003 0.060670
v 0.461295 1.454003 0.060670
v 0.460964 1.489077 0.187297
v 0.460964 1.489077 0.187297
v 0.460964 1.489077 0.187297
v 0.460964 1.489077 0.187297
v 1.195353 1.350884 0.019540
v 1.195353 1.350884 0.019540
v 1.195353 1.350884 0.019540
v 1.195353 1.350884 0.019540
v 1.195235 1.245785 0.064827
v 1.195235 1.245785 0.064827
v 1.195235 1.245785 0.064827
v 1.195235 1.245785 0.064827
v 1.194696 1.362564 0.271226
v 1.194696 1.362564 0.271226
v 1.194696 1.362564 0.271226
v 1.194696 1.362564 0.271226
v 1.195071 1.446573 0.127755
v 1.195071 1.446573 0.127755
v 1.195196 1.433321 0.079911
v 1.195196 1.433321 0.079911
v 1.195196 1.433321 0.079911
v 1.195196 1.433321 0.079911
v 1.194961 1.458195 0.169713
v 1.194961 1.458195 0.169713
v 1.194961 1.458195 0.169713
v 1.194961 1.458195 0.169713
v 0.163326 0.852675 -0.040083
v 0.163326 0.852675 -0.040083
v 0.163326 0.852675 -0.040083
v 0.163646 0.884757 -0.162794
v 0.163646 0.884757 -0.162794
v 0.163646 0.884757 -0.162794
v 0.000106 0.852674 -0.040509
v 0.000106 0.852674 -0.040509
v 0.000106 0.852674 -0.040509
v 0.000426 0.884757 -0.163220
v 0.000426 0.884757 -0.163220
v 0.000426 0.884757 -0.163220
v 0.000426 0.884757 -0.163220
v 0.163351 0.821403 -0.049796
v 0.163351 0.821403 -0.049796
v 0.163351 0.821403 -0.049796
v 0.163682 0.826313 -0.176537
v 0.163682 0.826313 -0.176537
v 0.163682 0.826313 -0.176537
v 0.163682 0.826313 -0.176537
v 0.000131 0.821403 -0.050222
v 0.000131 0.821403 -0.050222
v 0.000131 0.821403 -0.050222
v 0.000131 0.821403 -0.050222
v 0.000131 0.821403 -0.050222
v 0.000462 0.826313 -0.176963
v 0.000462 0.826313 -0.176963
v 0.000462 0.826313 -0.176963
v 0.000462 0.826313 -0.176963
v 0.000462 0.826313 -0.176963
v 0.163351 0.821403 -0.049796
v 0.163351 0.821403 -0.049796
v 0.163351 0.821403 -0.049796
v 0.163682 0.826313 -0.176537
v 0.163682 0.826313 -0.176537
v 0.163682 0.826313 -0.176537
v 0.163682 0.826313 -0.176537
v 0.028696 0.821403 -0.050053
v 0.028696 0.821403 -0.050053
v 0.028696 0.821403 -0.050053
v 0.028696 0.821403 -0.050053
v 0.029027 0.826313 -0.176794
v 0.029027 0.826313 -0.176794
v 0.029027 0.826313 -0.176794
v 0.029027 0.826313 -0.176794
v 0.163394 0.399393 -0.066144
v 0.163394 0.399393 -0.066144
v 0.163394 0.399393 -0.066144
v 0.163394 0.399393 -0.066144
v 0.163725 0.404303 -0.192885
v 0.163725 0.404303 -0.192885
v 0.163725 0.404303 -0.192885
v 0.163725 0.404303 -0.192885
v 0.028739 0.399393 -0.066401
v 0.028739 0.399393 -0.066401
v 0.028739 0.399393 -0.066401
v 0.028739 0.399393 -0.066401
v 0.029070 0.404303 -0.193142
v 0.029070 0.404303 -0.193142
v 0.029070 0.404303 -0.193142
v 0.029070 0.404303 -0.193142
v 0.178755 -0.026470 -0.070665
v 0.178755 -0.026470 -0.070665
v 0.178755 -0.026470 -0.070665
v 0.179148 -0.020637 -0.221242
v 0.179148 -0.020637 -0.221242
v 0.179148 -0.020637 -0.221242
v -0.015163 -0.026470 -0.071171
v -0.015163 -0.026470 -0.071171
v -0.015163 -0.026470 -0.071171
v -0.014770 -0.020637 -0.221748
v -0.014770 -0.020637 -0.221748
v -0.014770 -0.020637 -0.221748
v 2.309206 1.305939 -0.121677
v 2.309206 1.305939 -0.121677
v 2.309206 1.305939 -0.121677
v 2.309206 1.305939 -0.121677
v 2.335441 1.301454 -0.094746
v 2.335441 1.301454 -0.094746
v 2.335441 1.301454 -0.094746
v 2.335199 1.086212 -0.001999
v 2.335199 1.086212 -0.001999
v 2.335199 1.086212 -0.001999
v 2.308925 1.053238 -0.012789
v 2.308925 1.053238 -0.012789
v 2.308925 1.053238 -0.012789
v 2.308925 1.053238 -0.012789
v 2.334034 1.338696 0.444254
v 2.334034 1.338696 0.444254
v 2.334034 1.338696 0.444254
v 2.307628 1.334020 0.483479
v 2.307628 1.334020 0.483479
v 2.307628 1.334020 0.483479
v 2.307628 1.334020 0.483479
v 2.308521 1.536013 0.138515
v 2.308521 1.536013 0.138515
v 2.334813 1.512645 0.145828
v 2.334813 1.512645 0.145828
v 2.335094 1.482793 0.038055
v 2.335094 1.482793 0.038055
v 2.335094 1.482793 0.038055
v 2.308822 1.504150 0.023481
v 2.308822 1.504150 0.023481
v 2.308822 1.504150 0.023481
v 2.308822 1.504150 0.023481
v 2.334584 1.537000 0.233755
v 2.334584 1.537000 0.233755
v 2.334584 1.537000 0.233755
v 2.308260 1.563958 0.239401
v 2.308260 1.563958 0.239401
v 2.308260 1.563958 0.239401
v 2.308260 1.563958 0.239401
v -0.163015 1.044039 -0.079066
v -0.163015 1.044039 -0.079066
v -0.163015 1.044039 -0.079066
v -0.163115 0.852675 -0.040935
v -0.163115 0.852675 -0.040935
v -0.163115 0.852675 -0.040935
v -0.162794 1.011957 -0.163646
v -0.162794 1.011957 -0.163646
v -0.162794 1.011957 -0.163646
v -0.162794 0.884757 -0.163646
v -0.162794 0.884757 -0.163646
v -0.162794 0.884757 -0.163646
v -0.163338 1.205997 0.044641
v -0.163338 1.205997 0.044641
v -0.163185 1.341597 -0.013788
v -0.163185 1.341597 -0.013788
v -0.050579 1.398967 0.336778
v -0.050579 1.398967 0.336778
v -0.050579 1.398967 0.336778
v -0.163389 1.447958 0.064103
v -0.163389 1.447958 0.064103
v -0.050356 1.475334 0.251470
v -0.050356 1.475334 0.251470
v -0.050356 1.475334 0.251470
v -0.164033 1.356666 0.310940
v -0.164033 1.356666 0.310940
v -0.163691 1.480051 0.179967
v -0.163691 1.480051 0.179967
v -0.050729 1.412832 0.394406
v -0.050729 1.412832 0.394406
v -0.050729 1.412832 0.394406
v -0.050606 1.517082 0.347063
v -0.050606 1.517082 0.347063
v -0.050606 1.517082 0.347063
v -0.050894 1.413337 0.457356
v -0.050894 1.413337 0.457356
v -0.050894 1.413337 0.457356
v -0.050894 1.413337 0.457356
v -0.050893 1.527833 0.457097
v -0.050893 1.527833 0.457097
v -0.050893 1.527833 0.457097
v -0.050893 1.527833 0.457097
v -0.095811 1.361798 0.495488
v -0.095811 1.361798 0.495488
v -0.095811 1.361798 0.495488
v -0.095811 1.361798 0.495488
v -0.095810 1.579544 0.494996
v -0.095810 1.579544 0.494996
v -0.095810 1.579544 0.494996
v -0.095810 1.579544 0.494996
v -0.096415 1.362320 0.726821
v -0.096415 1.362320 0.726821
v -0.096415 1.362320 0.726821
v -0.096413 1.580066 0.726329
v -0.096413 1.580066 0.726329
v -0.096413 1.580066 0.726329
v -0.163550 1.465056 0.125831
v -0.163550 1.465056 0.125831
v -0.163041 1.347220 -0.069208
v -0.163041 1.347220 -0.069208
v -0.163041 1.347220 -0.069208
v -0.163277 1.147949 0.021152
v -0.163277 1.147949 0.021152
v -0.163277 1.147949 0.021152
v -0.164248 1.348058 0.393350
v -0.164248 1.348058 0.393350
v -0.164248 1.348058 0.393350
v -0.163523 1.505516 0.115560
v -0.163523 1.505516 0.115560
v -0.163317 1.484789 0.036813
v -0.163317 1.484789 0.036813
v -0.163317 1.484789 0.036813
v -0.163728 1.526243 0.194306
v -0.163728 1.526243 0.194306
v -0.163728 1.526243 0.194306
v -0.163185 1.341597 -0.013788
v -0.163185 1.341597 -0.013788
v -0.163185 1.341597 -0.013788
v -0.163338 1.205998 0.044641
v -0.163338 1.205998 0.044641
v -0.163338 1.205998 0.044641
v -0.164033 1.356666 0.310940
v -0.164033 1.356666 0.310940
v -0.164033 1.356666 0.310940
v -0.163550 1.465056 0.125831
v -0.163550 1.465056 0.125831
v -0.163389 1.447958 0.064103
v -0.163389 1.447958 0.064103
v -0.163389 1.447958 0.064103
v -0.163691 1.480051 0.179967
v -0.163691 1.480051 0.179967
v -0.163691 1.480051 0.179967
v -0.262118 1.336242 -0.031217
v -0.262118 1.336242 -0.031217
v -0.262118 1.336242 -0.031217
v -0.262118 1.336242 -0.031217
v -0.262290 1.183058 0.034790
v -0.262290 1.183058 0.034790
v -0.262290 1.183058 0.034790
v -0.262290 1.183058 0.034790
v -0.263075 1.353265 0.335623
v -0.263075 1.353265 0.335623
v -0.263075 1.353265 0.335623
v -0.263075 1.353265 0.335623
v -0.262529 1.475712 0.126509
v -0.262529 1.475712 0.126509
v -0.262347 1.456396 0.056776
v -0.262347 1.456396 0.056776
v -0.262347 1.456396 0.056776
v -0.262347 1.456396 0.056776
v -0.262689 1.492651 0.187665
v -0.262689 1.492651 0.187665
v -0.262689 1.492651 0.187665
v -0.262689 1.492651 0.187665
v -0.461383 1.337761 -0.026867
v -0.461383 1.337761 -0.026867
v -0.461383 1.337761 -0.026867
v -0.461383 1.337761 -0.026867
v -0.461549 1.189565 0.036991
v -0.461549 1.189565 0.036991
v -0.461549 1.189565 0.036991
v -0.461549 1.189565 0.036991
v -0.462309 1.354230 0.328028
v -0.462309 1.354230 0.328028
v -0.462309 1.354230 0.328028
v -0.462309 1.354230 0.328028
v -0.461781 1.472689 0.125723
v -0.461781 1.472689 0.125723
v -0.461605 1.454003 0.058261
v -0.461605 1.454003 0.058261
v -0.461605 1.454003 0.058261
v -0.461605 1.454003 0.058261
v -0.461936 1.489077 0.184888
v -0.461936 1.489077 0.184888
v -0.461936 1.489077 0.184888
v -0.461936 1.489077 0.184888
v -1.195439 1.350885 0.013300
v -1.195439 1.350885 0.013300
v -1.195439 1.350885 0.013300
v -1.195439 1.350885 0.013300
v -1.195557 1.245786 0.058586
v -1.195557 1.245786 0.058586
v -1.195557 1.245786 0.058586
v -1.195557 1.245786 0.058586
v -1.196096 1.362564 0.264985
v -1.196096 1.362564 0.264985
v -1.196096 1.362564 0.264985
v -1.196096 1.362564 0.264985
v -1.195721 1.446573 0.121514
v -1.195721 1.446573 0.121514
v -1.195596 1.433321 0.073671
v -1.195596 1.433321 0.073671
v -1.195596 1.433321 0.073671
v -1.195596 1.433321 0.073671
v -1.195831 1.458196 0.163473
v -1.195831 1.458196 0.163473
v -1.195831 1.458196 0.163473
v -1.195831 1.458196 0.163473
v -0.163115 0.852675 -0.040935
v -0.163115 0.852675 -0.040935
v -0.163115 0.852675 -0.040935
v -0.162794 0.884757 -0.163646
v -0.162794 0.884757 -0.163646
v -0.162794 0.884757 -0.163646
v -0.163089 0.821403 -0.050648
v -0.163089 0.821403 -0.050648
v -0.163089 0.821403 -0.050648
v -0.162758 0.826313 -0.177389
v -0.162758 0.826313 -0.177389
v -0.162758 0.826313 -0.177389
v -0.162758 0.826313 -0.177389
v -0.163089 0.821403 -0.050648
v -0.163089 0.821403 -0.050648
v -0.163089 0.821403 -0.050648
v -0.162758 0.826313 -0.177389
v -0.162758 0.826313 -0.177389
v -0.162758 0.826313 -0.177389
v -0.162758 0.826313 -0.177389
v -0.028435 0.821403 -0.050203
v -0.028435 0.821403 -0.050203
v -0.028435 0.821403 -0.050203
v -0.028435 0.821403 -0.050203
v -0.028104 0.826313 -0.176943
v -0.028104 0.826313 -0.176943
v -0.028104 0.826313 -0.176943
v -0.028104 0.826313 -0.176943
v -0.163047 0.399393 -0.066996
v -0.163047 0.399393 -0.066996
v -0.163047 0.399393 -0.066996
v -0.163047 0.399393 -0.066996
v -0.162716 0.404303 -0.193737
v -0.162716 0.404303 -0.193737
v -0.162716 0.404303 -0.193737
v -0.162716 0.404303 -0.193737
v -0.028392 0.399393 -0.066551
v -0.028392 0.399393 -0.066551
v -0.028392 0.399393 -0.066551
v -0.028392 0.399393 -0.066551
v -0.028061 0.404303 -0.193291
v -0.028061 0.404303 -0.193291
v -0.028061 0.404303 -0.193291
v -0.028061 0.404303 -0.193291
v -0.178383 -0.026470 -0.071597
v -0.178383 -0.026470 -0.071597
v -0.178383 -0.026470 -0.071597
v -0.177990 -0.020637 -0.222174
v -0.177990 -0.020637 -0.222174
v -0.177990 -0.020637 -0.222174
v 0.015534 -0.026470 -0.071091
v 0.015534 -0.026470 -0.071091
v 0.015534 -0.026470 -0.071091
v 0.015927 -0.020637 -0.221668
v 0.015927 -0.020637 -0.221668
v 0.015927 -0.020637 -0.221668
v -2.308539 1.305940 -0.133730
v -2.308539 1.305940 -0.133730
v -2.308539 1.305940 -0.133730
v -2.308539 1.305940 -0.133730
v -2.334915 1.301455 -0.106937
v -2.334915 1.301455 -0.106937
v -2.334915 1.301455 -0.106937
v -2.335157 1.086213 -0.014190
v -2.335157 1.086213 -0.014190
v -2.335157 1.086213 -0.014190
v -2.308827 1.053239 -0.024842
v -2.308827 1.053239 -0.024842
v -2.308827 1.053239 -0.024842
v -2.308827 1.053239 -0.024842
v -2.336322 1.338697 0.432063
v -2.336322 1.338697 0.432063
v -2.336322 1.338697 0.432063
v -2.310120 1.334021 0.471426
v -2.310120 1.334021 0.471426
v -2.310120 1.334021 0.471426
v -2.310120 1.334021 0.471426
v -2.309212 1.536014 0.126462
v -2.309212 1.536014 0.126462
v -2.335543 1.512646 0.133637
v -2.335543 1.512646 0.133637
v -2.335262 1.482793 0.025864
v -2.335262 1.482793 0.025864
v -2.335262 1.482793 0.025864
v -2.308913 1.504151 0.011427
v -2.308913 1.504151 0.011427
v -2.308913 1.504151 0.011427
v -2.308913 1.504151 0.011427
v -2.335773 1.537001 0.221564
v -2.335773 1.537001 0.221564
v -2.335773 1.537001 0.221564
v -2.309479 1.563959 0.227347
v -2.309479 1.563959 0.227347
v -2.309479 1.563959 0.227347
v -2.309479 1.563959 0.227347
vn -0.0019 -0.6942 0.7198
vn 0.0026 -0.0000 -1.0000
vn 1.0000 -0.0000 0.0026
vn -0.0012 -0.8808 0.4735
vn 0.0007 0.9671 -0.2545
vn -0.8940 -0.2514 0.3709
vn 0.3158 0.9450 -0.0852
vn -0.5818 0.7361 -0.3460
vn -0.0556 -0.4878 0.8712
vn -0.0017 0.7451 0.6670
vn -0.0006 -0.9723 0.2339
vn -0.0000 -1.0000 0.0080
vn 0.0021 -0.5960 -0.8030
vn 0.6500 -0.0017 -0.7599
vn -0.0000 -1.0000 0.0023
vn -0.0000 1.0000 -0.0023
vn -0.0026 0.0023 1.0000
vn 0.0021 0.5923 -0.8057
vn 0.0010 0.9164 -0.4002
vn 0.0002 0.9953 -0.0972
vn 0.0003 0.9953 -0.0972
vn 0.0021 0.6104 -0.7921
vn 0.0025 0.2711 -0.9625
vn -0.0026 0.1954 0.9807
vn 0.0715 0.2430 -0.9674
vn -0.1322 -0.0083 0.9912
vn -0.2927 -0.0527 0.9547
vn -0.5210 0.1046 -0.8471
vn -0.1053 0.5874 -0.8024
vn -0.7794 0.5607 -0.2795
vn -0.9457 0.2946 -0.1371
vn -0.0893 0.9960 0.0030
vn -0.1573 0.9875 -0.0060
vn -0.0239 0.9997 -0.0006
vn -0.2289 0.9722 0.0494
vn -0.9610 -0.2319 0.1503
vn 0.0354 0.9936 0.1068
vn 0.0204 -0.8701 0.4924
vn -0.1000 0.9588 -0.2658
vn -0.1755 -0.3894 -0.9042
vn -0.1480 0.7201 0.6780
vn -0.1535 -0.8602 0.4863
vn 0.0378 0.5905 -0.8062
vn 0.0173 0.5908 -0.8067
vn 0.0150 0.9636 -0.2669
vn 0.0279 -0.3956 -0.9180
vn 0.0190 0.7277 0.6856
vn 0.0341 0.9632 -0.2667
vn 0.0620 -0.3950 -0.9166
vn 0.0470 0.7270 0.6850
vn 0.0495 -0.8692 0.4919
vn -1.0000 -0.0000 -0.0026
vn -0.2780 0.4447 -0.8515
vn 0.0004 -0.8986 -0.4388
vn 0.0004 -0.9008 -0.4343
vn -0.2241 0.4189 0.8799
vn -0.0135 0.9999 -0.0000
vn -0.0134 0.9999 -0.0000
vn -0.0000 1.0000 -0.0000
vn 0.7460 -0.0335 -0.6651
vn -0.0000 -1.0000 -0.0000
vn -0.0000 -1.0000 -0.0002
vn -0.0025 -0.2966 0.9550
vn 0.0025 0.2289 -0.9734
vn 0.0002 -0.9993 -0.0387
vn -0.0000 1.0000 -0.0004
vn -0.9947 0.1025 0.0014
vn -0.0019 -0.0387 0.9992
vn 0.0019 0.0387 -0.9992
vn 0.0001 -0.9993 -0.0387
vn -0.0024 -0.0108 0.9999
vn -0.0022 -0.0109 0.9999
vn -0.0025 -0.0108 0.9999
vn -0.0023 -0.0108 0.9999
vn 0.0024 0.0668 -0.9978
vn 0.0023 0.0668 -0.9978
vn 0.9993 0.0360 0.0040
vn 0.6584 -0.2985 -0.6910
vn 0.6583 -0.2985 -0.6910
vn 0.6640 -0.6500 0.3695
vn 0.6813 0.7059 -0.1937
vn 0.6655 0.5424 0.5127
vn 0.6804 0.4338 -0.5906
vn 0.6804 0.4339 -0.5907
vn 0.6813 0.7059 -0.1938
vn -0.1313 -0.3922 -0.9105
vn -0.0782 0.5889 -0.8044
vn -0.1154 -0.8647 0.4889
vn -0.1114 0.7235 0.6813
vn -0.0746 0.9610 -0.2664
vn 0.8080 0.5858 0.0631
vn 0.5583 0.8179 0.1393
vn 0.6853 -0.7050 -0.1828
vn 0.2995 0.9530 0.0463
vn -0.6460 -0.0017 -0.7633
vn 0.2245 -0.0818 0.9710
vn -0.2475 0.8701 -0.4261
vn -0.2154 -0.2180 0.9519
vn -0.0971 -0.2966 0.9501
vn 0.1095 0.5874 -0.8018
vn 0.3912 0.7551 -0.5261
vn 0.0023 -0.4520 -0.8920
vn 0.3746 0.9219 0.0990
vn 0.1086 0.9927 0.0521
vn 0.6203 0.4949 0.6086
vn 0.6002 0.2522 -0.7590
vn -0.7462 0.6514 0.1373
vn -0.6559 0.7446 0.1241
vn -0.0230 -0.8701 0.4923
vn 0.1014 0.9588 -0.2653
vn 0.1802 -0.3894 -0.9033
vn 0.1444 0.7201 0.6787
vn 0.1509 -0.8602 0.4871
vn -0.0336 0.5905 -0.8064
vn -0.0131 0.5908 -0.8067
vn -0.0136 0.9636 -0.2669
vn -0.0231 -0.3956 -0.9181
vn -0.0226 0.7277 0.6855
vn -0.0327 0.9632 -0.2669
vn -0.0572 -0.3950 -0.9169
vn -0.0506 0.7270 0.6848
vn -0.0521 -0.8692 0.4917
vn 0.1966 0.9805 -0.0011
vn -0.0002 -1.0000 -0.0000
vn -0.0225 -0.9997 -0.0125
vn -0.5807 -0.5870 -0.5641
vn 0.2508 -0.8967 -0.3647
vn -0.0000 -0.9993 -0.0387
vn -0.0000 1.0000 0.0001
vn 0.9947 0.1025 0.0066
vn -0.0033 -0.0387 0.9992
vn 0.0033 0.0387 -0.9992
vn -0.0026 -0.0107 0.9999
vn -0.0030 -0.0109 0.9999
vn 0.0026 0.0669 -0.9978
vn 0.0028 0.0668 -0.9978
vn -0.9994 0.0360 -0.0012
vn -0.6547 -0.2985 -0.6945
vn -0.6548 -0.2985 -0.6944
vn -0.6659 -0.6500 0.3661
vn -0.6660 -0.6500 0.3660
vn -0.6803 0.7059 -0.1973
vn -0.6682 0.5424 0.5092
vn -0.6681 0.5424 0.5093
vn -0.6773 0.4339 -0.5942
vn -0.6773 0.4338 -0.5942
vn 0.1360 -0.3922 -0.9098
vn 0.0824 0.5889 -0.8040
vn 0.1129 -0.8647 0.4895
vn 0.1078 0.7235 0.6819
vn 0.0760 0.9610 -0.2660
vt 0.625000 0.625000
vt 0.625000 0.500000
vt 0.375000 0.125000
vt 0.625000 0.125000
vt 0.625000 0.250000
vt 0.375000 0.250000
vt 0.375000 0.500000
vt 0.625000 0.133504
vt 0.625000 0.267008
vt 0.676990 0.558453
vt 0.754979 0.558453
vt 0.625000 0.298972
vt 0.625000 0.312687
vt 0.754979 0.625000
vt 0.806969 0.500000
vt 0.806969 0.625000
vt 0.676990 0.625000
vt 0.375000 0.625000
vt 0.625000 0.142008
vt 0.625000 0.284016
vt 0.625000 0.293858
vt 0.625000 0.455382
vt 0.625000 0.463081
vt 0.625000 0.280787
vt 0.125000 0.625000
vt 0.125000 0.500000
vt 0.625000 0.307700
vt 0.625000 0.441023
vt 0.625000 0.450236
vt 0.625000 0.309768
vt 0.625000 0.292288
vt 0.625000 0.322089
s 0
usemtl Material.002
f 60/1/1 2/2/1 104/2/1
f 60/1/1 104/2/1 67/1/1
f 59/3/2 63/4/2 8/5/2
f 59/3/2 8/5/2 11/6/2
f 12/6/3 9/5/3 1/2/3
f 12/6/3 1/2/3 5/7/3
f 1/2/3 9/5/3 101/5/3
f 1/2/3 101/5/3 102/2/3
s 1
f 66/1/4 103/2/4 106/2/4
s 0
f 66/1/4 106/2/4 70/1/4
f 98/8/5 108/9/5 110/5/5
f 98/8/5 110/5/5 74/4/5
f 17/10/3 23/11/3 34/11/3
f 17/10/3 34/11/3 29/10/3
s 1
f 96/12/6 27/13/7 130/13/8
f 96/12/6 130/13/8 125/12/9
s 0
f 79/14/10 24/11/10 115/15/10
f 79/14/10 115/15/10 73/16/10
f 24/11/10 19/10/10 107/2/10
f 24/11/10 107/2/10 115/15/10
f 76/17/11 18/10/11 31/10/11
s 1
f 76/17/11 31/10/11 81/17/11
s 0
f 80/17/12 30/10/12 38/10/12
f 80/17/12 38/10/12 85/17/12
f 29/10/3 34/11/3 42/11/3
f 29/10/3 42/11/3 37/10/3
f 45/10/3 50/11/3 55/11/3
f 45/10/3 55/11/3 51/10/3
f 84/17/13 35/10/13 43/10/13
f 84/17/13 43/10/13 88/17/13
f 36/10/14 41/11/14 49/11/14
f 36/10/14 49/11/14 44/10/14
f 89/17/15 46/10/15 52/10/15
f 89/17/15 52/10/15 92/17/15
f 47/11/16 90/14/16 94/14/16
f 47/11/16 94/14/16 54/11/16
f 53/10/17 56/11/17 95/14/17
f 53/10/17 95/14/17 93/17/17
f 40/11/18 87/14/18 91/14/18
s 1
f 40/11/18 91/14/18 48/11/18
s 0
f 22/11/19 78/14/19 83/14/19
f 22/11/19 83/14/19 33/11/19
f 32/11/20 82/14/20 86/14/20
f 32/11/21 86/14/21 39/11/21
f 19/10/10 77/17/10 71/1/10
f 19/10/10 71/1/10 107/2/10
f 99/5/22 68/4/22 75/4/22
f 99/5/22 75/4/22 111/5/22
f 7/5/23 62/4/23 69/4/23
f 7/5/23 69/4/23 100/5/23
f 6/7/24 3/2/24 61/1/24
f 6/7/24 61/1/24 65/18/24
s 1
f 4/7/25 64/18/26 205/18/27
f 4/7/25 205/18/27 199/7/28
s 0
f 72/19/5 113/20/5 108/9/5
f 72/19/5 108/9/5 98/8/5
f 16/21/3 14/22/3 102/2/3
f 16/21/3 102/2/3 101/5/3
f 14/22/3 26/23/3 105/2/3
f 14/22/3 105/2/3 102/2/3
f 97/12/3 21/24/3 112/5/3
f 97/12/3 112/5/3 109/9/3
f 26/23/3 28/13/3 114/20/3
f 26/23/3 114/20/3 105/2/3
f 21/24/3 16/21/3 101/5/3
f 21/24/3 101/5/3 112/5/3
f 28/13/3 97/12/3 109/9/3
f 28/13/3 109/9/3 114/20/3
f 117/21/29 129/24/29 150/24/29
f 117/21/29 150/24/29 135/21/29
s 1
f 27/13/7 25/23/30 122/23/31
f 27/13/7 122/23/31 130/13/8
f 25/23/30 13/22/32 119/22/33
f 25/23/30 119/22/33 122/23/31
f 15/21/34 20/24/35 127/24/36
f 15/21/34 127/24/36 116/21/37
f 20/24/35 96/12/6 125/12/9
f 20/24/35 125/12/9 127/24/36
f 13/22/32 15/21/34 116/21/37
f 13/22/32 116/21/37 119/22/33
s 0
f 142/23/38 137/22/38 159/22/38
f 142/23/38 159/22/38 164/23/38
f 128/24/39 126/12/39 146/12/39
s 1
f 128/24/39 146/12/39 149/24/39
s 0
f 121/22/40 118/21/40 136/21/40
f 121/22/40 136/21/40 140/22/40
f 126/12/39 131/13/39 153/13/39
f 126/12/39 153/13/39 146/12/39
f 132/13/41 123/23/41 143/23/41
f 132/13/41 143/23/41 154/13/41
f 124/23/42 120/22/42 139/22/42
f 124/23/42 139/22/42 144/23/42
f 157/21/43 172/24/43 192/24/43
f 157/21/43 192/24/43 177/21/43
f 133/21/44 148/24/44 170/24/44
f 133/21/44 170/24/44 155/21/44
f 147/24/45 145/12/45 167/12/45
f 147/24/45 167/12/45 169/24/45
f 138/22/46 134/21/46 156/21/46
f 138/22/46 156/21/46 160/22/46
f 145/12/45 151/13/45 173/13/45
f 145/12/45 173/13/45 167/12/45
f 152/13/47 141/23/47 163/23/47
f 152/13/47 163/23/47 174/13/47
f 171/24/48 168/12/48 189/12/48
f 171/24/48 189/12/48 191/24/48
f 162/22/49 158/21/49 178/21/49
f 162/22/49 178/21/49 182/22/49
f 168/12/48 175/13/48 195/13/48
f 168/12/48 195/13/48 189/12/48
f 176/13/50 165/23/50 185/23/50
f 176/13/50 185/23/50 196/13/50
f 166/23/51 161/22/51 181/22/51
f 166/23/51 181/22/51 186/23/51
f 207/18/52 211/25/52 228/25/52
f 207/18/52 228/25/52 223/18/52
s 1
f 64/18/53 57/25/54 208/25/55
f 64/18/53 208/25/55 205/18/56
f 58/3/57 10/6/58 202/6/58
s 0
f 58/3/59 202/6/59 209/3/59
s 1
f 10/6/60 4/7/25 199/7/28
s 0
f 10/6/61 199/7/61 202/6/61
s 1
f 224/3/61 216/6/61 233/6/61
s 0
f 224/3/62 233/6/62 240/3/62
s 1
f 201/7/63 206/18/63 222/18/63
s 0
f 201/7/63 222/18/63 214/7/63
f 210/3/64 203/6/64 217/6/64
f 210/3/64 217/6/64 227/3/64
f 204/6/3 200/7/3 213/7/3
f 204/6/3 213/7/3 218/6/3
f 239/18/52 243/25/52 259/25/52
f 239/18/52 259/25/52 255/18/52
f 215/6/59 212/7/59 229/7/59
f 215/6/59 229/7/59 232/6/59
f 221/18/65 226/25/65 241/25/65
f 221/18/65 241/25/65 237/18/65
s 1
f 212/7/66 219/18/66 236/18/66
s 0
f 212/7/59 236/18/59 229/7/59
f 254/18/67 258/25/67 271/25/67
f 254/18/67 271/25/67 268/18/67
f 231/7/68 238/18/68 252/18/68
f 231/7/68 252/18/68 246/7/68
f 242/3/69 234/6/69 248/6/69
f 242/3/69 248/6/69 256/3/69
f 235/6/3 230/7/3 245/7/3
f 235/6/3 245/7/3 251/6/3
f 263/26/70 260/7/70 266/18/70
f 263/26/70 266/18/70 269/25/70
s 1
f 247/7/71 253/18/72 267/18/73
f 247/7/71 267/18/73 262/7/74
f 257/3/75 249/6/75 264/6/75
s 0
f 257/3/76 264/6/76 270/3/76
f 250/6/77 244/7/77 261/7/77
f 250/6/77 261/7/77 265/6/77
f 276/27/78 279/28/78 282/22/78
f 276/27/79 282/22/79 272/21/79
f 289/23/80 283/22/80 280/28/80
f 289/23/80 280/28/80 286/29/80
f 295/30/81 298/31/81 301/24/81
f 295/30/81 301/24/81 293/12/81
s 1
f 287/29/82 304/32/82 307/13/82
s 0
f 287/29/82 307/13/82 290/23/82
f 297/31/83 277/27/83 273/21/83
s 1
f 297/31/84 273/21/84 300/24/84
s 0
f 305/32/81 295/30/81 293/12/81
f 305/32/85 293/12/85 308/13/85
s 1
f 184/22/86 180/21/86 275/21/86
s 0
f 184/22/86 275/21/86 285/22/86
f 288/29/3 281/28/3 278/27/3
f 278/27/3 299/31/3 296/30/3
f 296/30/3 306/32/3 288/29/3
f 278/27/3 296/30/3 288/29/3
f 179/21/87 194/24/87 303/24/87
f 179/21/87 303/24/87 274/21/87
f 188/23/88 183/22/88 284/22/88
f 188/23/88 284/22/88 292/23/88
f 198/13/89 187/23/89 291/23/89
f 198/13/89 291/23/89 310/13/89
f 193/24/90 190/12/90 294/12/90
f 193/24/90 294/12/90 302/24/90
f 190/12/90 197/13/90 309/13/90
f 190/12/90 309/13/90 294/12/90
f 60/1/1 67/1/1 373/2/1
f 60/1/1 373/2/1 311/2/1
f 59/3/2 321/6/2 318/5/2
f 59/3/2 318/5/2 63/4/2
f 322/6/52 316/7/52 313/2/52
f 322/6/52 313/2/52 319/5/52
f 313/2/52 374/2/52 371/5/52
f 313/2/52 371/5/52 319/5/52
s 1
f 66/1/4 70/1/4 375/2/4
s 0
f 66/1/4 375/2/4 372/2/4
f 98/8/5 74/4/5 380/5/5
f 98/8/5 380/5/5 378/9/5
f 329/10/52 341/10/52 344/11/52
f 329/10/52 344/11/52 334/11/52
s 1
f 367/12/91 395/12/92 400/13/93
f 367/12/91 400/13/93 337/13/94
s 0
f 79/14/10 73/16/10 384/15/10
f 79/14/10 384/15/10 333/11/10
f 333/11/10 384/15/10 376/2/10
f 333/11/10 376/2/10 328/10/10
f 76/17/11 81/17/11 340/10/11
f 76/17/11 340/10/11 327/10/11
f 80/17/12 85/17/12 346/10/12
f 80/17/12 346/10/12 339/10/12
f 341/10/52 348/10/52 352/11/52
f 341/10/52 352/11/52 344/11/52
f 356/10/52 363/10/52 366/11/52
f 356/10/52 366/11/52 360/11/52
f 84/17/13 88/17/13 353/10/13
f 84/17/13 353/10/13 345/10/13
f 347/10/95 355/10/95 359/11/95
f 347/10/95 359/11/95 351/11/95
f 89/17/15 92/17/15 361/10/15
f 89/17/15 361/10/15 354/10/15
f 357/11/16 364/11/16 94/14/16
f 357/11/16 94/14/16 90/14/16
f 362/10/17 93/17/17 95/14/17
f 362/10/17 95/14/17 365/11/17
f 350/11/18 358/11/18 91/14/18
f 350/11/18 91/14/18 87/14/18
f 332/11/19 343/11/19 83/14/19
f 332/11/19 83/14/19 78/14/19
f 342/11/21 349/11/21 86/14/21
f 342/11/21 86/14/21 82/14/21
f 328/10/10 376/2/10 71/1/10
f 328/10/10 71/1/10 77/17/10
f 369/5/22 381/5/22 75/4/22
f 369/5/22 75/4/22 68/4/22
f 317/5/23 370/5/23 69/4/23
f 317/5/23 69/4/23 62/4/23
f 315/7/24 65/18/24 61/1/24
f 315/7/24 61/1/24 312/2/24
s 1
f 314/7/96 469/7/97 205/18/98
f 314/7/96 205/18/98 64/18/99
s 0
f 72/19/5 98/8/5 378/9/5
f 72/19/5 378/9/5 383/20/5
f 326/21/52 371/5/52 374/2/52
f 326/21/52 374/2/52 324/22/52
f 324/22/52 374/2/52 377/2/52
f 324/22/52 377/2/52 336/23/52
f 368/12/52 379/9/52 382/5/52
f 368/12/52 382/5/52 331/24/52
f 336/23/52 377/2/52 385/20/52
f 336/23/52 385/20/52 338/13/52
f 331/24/52 382/5/52 371/5/52
f 331/24/52 371/5/52 326/21/52
f 338/13/52 385/20/52 379/9/52
f 338/13/52 379/9/52 368/12/52
s 1
f 387/21/100 403/21/100 418/24/100
s 0
f 387/21/100 418/24/100 399/24/100
s 1
f 337/13/94 400/13/93 392/23/101
f 337/13/94 392/23/101 335/23/102
f 335/23/102 392/23/101 389/22/103
f 335/23/102 389/22/103 323/22/104
f 325/21/105 386/21/106 397/24/107
f 325/21/105 397/24/107 330/24/108
f 330/24/108 397/24/107 395/12/92
f 330/24/108 395/12/92 367/12/91
f 323/22/104 389/22/103 386/21/106
f 323/22/104 386/21/106 325/21/105
s 0
f 414/23/109 434/23/109 429/22/109
f 414/23/109 429/22/109 409/22/109
f 398/24/110 417/24/110 415/12/110
f 398/24/110 415/12/110 396/12/110
f 391/22/111 408/22/111 404/21/111
f 391/22/111 404/21/111 388/21/111
f 396/12/110 415/12/110 421/13/110
f 396/12/110 421/13/110 401/13/110
f 402/13/112 422/13/112 411/23/112
f 402/13/112 411/23/112 393/23/112
f 394/23/113 412/23/113 407/22/113
f 394/23/113 407/22/113 390/22/113
f 427/21/114 449/21/114 464/24/114
f 427/21/114 464/24/114 442/24/114
f 405/21/115 425/21/115 439/24/115
f 405/21/115 439/24/115 419/24/115
f 420/24/116 440/24/116 437/12/116
f 420/24/116 437/12/116 416/12/116
f 410/22/117 430/22/117 426/21/117
s 1
f 410/22/117 426/21/117 406/21/117
s 0
f 416/12/116 437/12/116 443/13/116
f 416/12/116 443/13/116 423/13/116
f 424/13/118 444/13/118 433/23/118
f 424/13/118 433/23/118 413/23/118
f 441/24/119 463/24/119 460/12/119
f 441/24/119 460/12/119 438/12/119
f 432/22/120 454/22/120 450/21/120
f 432/22/120 450/21/120 428/21/120
f 438/12/119 460/12/119 467/13/119
f 438/12/119 467/13/119 445/13/119
f 446/13/121 468/13/121 457/23/121
s 1
f 446/13/121 457/23/121 435/23/121
s 0
f 436/23/122 458/23/122 453/22/122
f 436/23/122 453/22/122 431/22/122
f 58/3/59 209/3/59 472/6/59
f 58/3/59 472/6/59 320/6/59
f 320/6/59 472/6/59 469/7/59
s 1
f 320/6/123 469/7/97 314/7/96
s 0
f 224/3/62 493/3/62 486/6/62
s 1
f 224/3/61 486/6/61 479/6/61
s 0
f 470/7/63 476/7/63 222/18/63
f 470/7/63 222/18/63 206/18/63
f 210/3/64 227/3/64 480/6/64
f 210/3/64 480/6/64 473/6/64
f 474/6/52 481/6/52 477/7/52
f 474/6/52 477/7/52 471/7/52
f 491/18/3 506/18/3 512/25/3
f 491/18/3 512/25/3 496/25/3
s 1
f 478/6/124 485/6/125 482/7/126
f 478/6/124 482/7/126 475/7/127
s 0
f 220/18/128 490/18/128 494/25/128
f 220/18/128 494/25/128 225/25/128
f 475/7/59 482/7/59 489/18/59
f 475/7/129 489/18/129 219/18/129
f 505/18/130 520/18/130 524/25/130
f 505/18/130 524/25/130 511/25/130
f 483/7/131 498/7/131 508/18/131
f 483/7/131 508/18/131 492/18/131
f 495/3/132 510/3/132 502/6/132
f 495/3/132 502/6/132 487/6/132
f 488/6/52 504/6/52 500/7/52
f 488/6/52 500/7/52 484/7/52
f 516/26/70 522/25/70 519/18/70
f 516/26/70 519/18/70 513/7/70
f 497/7/133 514/7/133 521/18/133
f 497/7/134 521/18/134 507/18/134
f 509/3/135 523/3/135 517/6/135
s 1
f 509/3/136 517/6/136 501/6/136
s 0
f 503/6/137 518/6/137 515/7/137
f 503/6/137 515/7/137 499/7/137
f 529/27/138 527/21/138 537/22/138
f 529/27/139 537/22/139 532/28/139
f 544/23/140 539/29/140 533/28/140
f 544/23/141 533/28/141 538/22/141
f 548/30/142 547/12/142 556/24/142
f 548/30/142 556/24/142 551/31/142
f 540/29/143 545/23/143 562/13/143
f 540/29/144 562/13/144 557/32/144
f 550/31/145 555/24/145 528/21/145
f 550/31/146 528/21/146 530/27/146
f 558/32/142 563/13/142 547/12/142
f 558/32/142 547/12/142 548/30/142
f 452/22/147 536/22/147 526/21/147
f 452/22/147 526/21/147 448/21/147
f 531/27/52 534/28/52 541/29/52
f 541/29/52 559/32/52 549/30/52
f 549/30/52 552/31/52 531/27/52
f 541/29/52 549/30/52 531/27/52
f 447/21/148 525/21/148 554/24/148
f 447/21/148 554/24/148 462/24/148
f 456/23/149 543/23/149 535/22/149
f 456/23/149 535/22/149 451/22/149
f 466/13/150 561/13/150 542/23/150
f 466/13/150 542/23/150 455/23/150
f 461/24/151 553/24/151 546/12/151
f 461/24/151 546/12/151 459/12/151
f 459/12/151 546/12/151 560/13/151
f 459/12/151 560/13/151 465/13/151
