# Blender 5.0.1
# www.blender.org
mtllib Flashlight4.mtl
o Flashlight
v 0.033500 -0.145135 -0.239549
v 0.028369 -0.154021 -0.237739
v 0.033500 -0.155395 -0.237739
v 0.024614 -0.150265 -0.237739
v 0.023239 -0.145135 -0.237739
v 0.024614 -0.140004 -0.237739
v 0.028369 -0.136249 -0.237739
v 0.033500 -0.134874 -0.237739
v 0.038630 -0.136249 -0.237739
v 0.042386 -0.140004 -0.237739
v 0.043760 -0.145135 -0.237739
v 0.042386 -0.150265 -0.237739
v 0.038630 -0.154021 -0.237739
v 0.023858 -0.161835 -0.232530
v 0.033500 -0.164418 -0.232530
v 0.016799 -0.154776 -0.232530
v 0.014216 -0.145135 -0.232530
v 0.016799 -0.135493 -0.232530
v 0.023858 -0.128434 -0.232530
v 0.033500 -0.125851 -0.232530
v 0.043141 -0.128434 -0.232530
v 0.050200 -0.135493 -0.232530
v 0.052783 -0.145135 -0.232530
v 0.050200 -0.154776 -0.232530
v 0.043141 -0.161835 -0.232530
v 0.020509 -0.167635 -0.224549
v 0.033500 -0.171115 -0.224549
v 0.011000 -0.158125 -0.224549
v 0.007519 -0.145135 -0.224549
v 0.011000 -0.132144 -0.224549
v 0.020509 -0.122635 -0.224549
v 0.033500 -0.119154 -0.224549
v 0.046490 -0.122635 -0.224549
v 0.056000 -0.132144 -0.224549
v 0.059480 -0.145135 -0.224549
v 0.056000 -0.158125 -0.224549
v 0.046490 -0.167635 -0.224549
v 0.018728 -0.170721 -0.214758
v 0.033500 -0.174679 -0.214758
v 0.007914 -0.159907 -0.214758
v 0.003955 -0.145135 -0.214758
v 0.007914 -0.130362 -0.214758
v 0.018727 -0.119549 -0.214758
v 0.033500 -0.115590 -0.214758
v 0.048272 -0.119549 -0.214758
v 0.059086 -0.130362 -0.214758
v 0.063044 -0.145135 -0.214758
v 0.059086 -0.159907 -0.214758
v 0.048272 -0.170721 -0.214758
v 0.018728 -0.170721 -0.204339
v 0.033500 -0.174679 -0.204339
v 0.007914 -0.159907 -0.204339
v 0.003955 -0.145135 -0.204339
v 0.007914 -0.130362 -0.204339
v 0.018728 -0.119549 -0.204339
v 0.033500 -0.115590 -0.204339
v 0.048272 -0.119549 -0.204339
v 0.059086 -0.130362 -0.204339
v 0.063044 -0.145135 -0.204339
v 0.059086 -0.159907 -0.204339
v 0.048272 -0.170721 -0.204339
v 0.020509 -0.167635 -0.194549
v 0.033500 -0.171115 -0.194549
v 0.011000 -0.158125 -0.194549
v 0.007519 -0.145135 -0.194549
v 0.011000 -0.132144 -0.194549
v 0.020509 -0.122635 -0.194549
v 0.033500 -0.119154 -0.194549
v 0.046490 -0.122635 -0.194549
v 0.056000 -0.132144 -0.194549
v 0.059480 -0.145135 -0.194549
v 0.056000 -0.158125 -0.194549
v 0.046490 -0.167635 -0.194549
v 0.023858 -0.161835 -0.186567
v 0.033500 -0.164418 -0.186567
v 0.016799 -0.154776 -0.186567
v 0.014216 -0.145135 -0.186567
v 0.016799 -0.135493 -0.186567
v 0.023858 -0.128434 -0.186567
v 0.033500 -0.125851 -0.186567
v 0.043141 -0.128434 -0.186567
v 0.050200 -0.135493 -0.186567
v 0.052783 -0.145135 -0.186567
v 0.050200 -0.154776 -0.186567
v 0.043141 -0.161835 -0.186567
v 0.028369 -0.154021 -0.181358
v 0.033500 -0.155395 -0.181358
v 0.024614 -0.150265 -0.181358
v 0.023239 -0.145135 -0.181358
v 0.024614 -0.140004 -0.181358
v 0.028369 -0.136249 -0.181358
v 0.033500 -0.134874 -0.181358
v 0.038630 -0.136249 -0.181358
v 0.042386 -0.140004 -0.181358
v 0.043760 -0.145135 -0.181358
v 0.042386 -0.150265 -0.181358
v 0.038630 -0.154021 -0.181358
v 0.033500 -0.145135 -0.179549
v -0.036500 -0.145590 -0.109093
v -0.027122 -0.110590 -0.109093
v -0.027122 -0.110590 0.230907
v -0.036500 -0.145590 0.230907
v -0.001500 -0.084969 -0.109093
v -0.001500 -0.084969 0.230907
v 0.033500 -0.075590 -0.109093
v 0.033500 -0.075590 0.230907
v 0.068500 -0.084969 -0.109093
v 0.068500 -0.084969 0.230907
v 0.094121 -0.110590 -0.109093
v 0.094121 -0.110590 0.230907
v 0.103500 -0.145590 -0.109093
v 0.103500 -0.145590 0.230907
v 0.094121 -0.180590 -0.109093
v 0.094121 -0.180590 0.230907
v 0.068500 -0.206212 -0.109093
v 0.068500 -0.206212 0.230907
v 0.033500 -0.215590 -0.109093
v 0.033500 -0.215590 0.230907
v -0.001500 -0.206212 -0.109093
v -0.001500 -0.206212 0.230907
v -0.027122 -0.180590 -0.109093
v -0.027122 -0.180590 0.230907
v -0.008850 -0.218943 -0.129093
v -0.039853 -0.187940 -0.129093
v -0.039853 -0.103240 0.250907
v -0.051201 -0.145590 0.250907
v 0.033500 -0.230290 -0.129093
v 0.075850 -0.218943 -0.129093
v 0.106852 -0.187940 -0.129093
v 0.118200 -0.145590 -0.129093
v 0.106852 -0.103240 -0.129093
v 0.075850 -0.072238 -0.129093
v 0.033500 -0.060890 -0.129093
v -0.008850 -0.072238 -0.129093
v -0.039853 -0.103240 -0.129093
v -0.051201 -0.145590 -0.129093
v -0.027271 -0.250848 -0.229093
v -0.071759 -0.206361 -0.229093
v 0.033500 -0.267132 -0.229093
v 0.094270 -0.250848 -0.229093
v 0.138758 -0.206361 -0.229093
v 0.155041 -0.145590 -0.229093
v 0.138758 -0.084820 -0.229093
v 0.094270 -0.040332 -0.229093
v 0.033500 -0.024049 -0.229093
v -0.027271 -0.040332 -0.229093
v -0.071759 -0.084820 -0.229093
v -0.088042 -0.145590 -0.229093
v -0.021194 -0.240323 -0.239093
v -0.061233 -0.200284 -0.239093
v 0.033500 -0.254978 -0.239093
v 0.088193 -0.240323 -0.239093
v 0.128232 -0.200284 -0.239093
v 0.142887 -0.145590 -0.239093
v 0.128232 -0.090897 -0.239093
v 0.088193 -0.050858 -0.239093
v 0.033500 -0.036203 -0.239093
v -0.021194 -0.050858 -0.239093
v -0.061233 -0.090897 -0.239093
v -0.075888 -0.145590 -0.239093
v -0.026663 -0.249796 -0.259093
v -0.070706 -0.205753 -0.259093
v 0.033500 -0.265916 -0.259093
v 0.093662 -0.249796 -0.259093
v 0.137705 -0.205753 -0.259093
v 0.153825 -0.145590 -0.259093
v 0.137705 -0.085427 -0.259093
v 0.093662 -0.041385 -0.259093
v 0.033500 -0.025264 -0.259093
v -0.026663 -0.041385 -0.259093
v -0.070706 -0.085427 -0.259093
v -0.086827 -0.145590 -0.259093
v -0.026663 -0.249796 -0.299093
v -0.070706 -0.205753 -0.299093
v 0.033500 -0.265916 -0.299093
v 0.093663 -0.249796 -0.299093
v 0.137705 -0.205753 -0.299093
v 0.153826 -0.145590 -0.299093
v 0.137705 -0.085427 -0.299093
v 0.093663 -0.041385 -0.299093
v 0.033500 -0.025264 -0.299093
v -0.026663 -0.041385 -0.299093
v -0.070706 -0.085427 -0.299093
v -0.086827 -0.145590 -0.299093
v 0.010329 -0.185724 -0.199093
v -0.006634 -0.168762 -0.199093
v 0.033500 -0.191933 -0.199093
v 0.056671 -0.185724 -0.199093
v 0.073633 -0.168762 -0.199093
v 0.079842 -0.145590 -0.199093
v 0.073633 -0.122419 -0.199093
v 0.056671 -0.105457 -0.199093
v 0.033500 -0.099248 -0.199093
v 0.010329 -0.105457 -0.199093
v -0.006634 -0.122419 -0.199093
v -0.012843 -0.145590 -0.199093
v -0.008850 -0.072238 0.250907
v 0.033500 -0.060890 0.250907
v 0.075849 -0.072238 0.250907
v 0.106852 -0.103240 0.250907
v 0.118200 -0.145590 0.250907
v 0.106852 -0.187940 0.250907
v 0.075849 -0.218943 0.250907
v 0.033500 -0.230290 0.250907
v -0.008850 -0.218943 0.250907
v -0.039853 -0.187940 0.250907
v -0.039853 -0.103240 0.310907
v -0.051201 -0.145590 0.310907
v -0.008850 -0.072238 0.310907
v 0.033499 -0.060890 0.310907
v 0.075849 -0.072238 0.310907
v 0.106851 -0.103240 0.310907
v 0.118199 -0.145590 0.310907
v 0.106851 -0.187940 0.310907
v 0.075849 -0.218943 0.310907
v 0.033499 -0.230290 0.310907
v -0.008850 -0.218943 0.310907
v -0.039853 -0.187940 0.310907
v -0.056500 -0.145590 -0.289093
v -0.044443 -0.100590 -0.289093
v -0.044443 -0.100590 -0.259093
v -0.056500 -0.145590 -0.259093
v -0.011500 -0.067648 -0.289093
v -0.011500 -0.067648 -0.259093
v 0.033500 -0.055590 -0.289093
v 0.033500 -0.055590 -0.259093
v 0.078500 -0.067648 -0.289093
v 0.078500 -0.067648 -0.259093
v 0.111442 -0.100590 -0.289093
v 0.111442 -0.100590 -0.259093
v 0.123500 -0.145590 -0.289093
v 0.123500 -0.145590 -0.259093
v 0.111442 -0.190590 -0.289093
v 0.111442 -0.190590 -0.259093
v 0.078500 -0.223533 -0.289093
v 0.078500 -0.223533 -0.259093
v 0.033500 -0.235590 -0.289093
v 0.033500 -0.235590 -0.259093
v -0.011500 -0.223533 -0.289093
v -0.011500 -0.223533 -0.259093
v -0.044443 -0.190590 -0.289093
v -0.044443 -0.190590 -0.259093
v -0.002950 -0.208724 -0.299093
v -0.029634 -0.182040 -0.299093
v 0.033500 -0.218490 -0.299093
v 0.069950 -0.208724 -0.299093
v 0.096633 -0.182040 -0.299093
v 0.106400 -0.145590 -0.299093
v 0.096633 -0.109140 -0.299093
v 0.069950 -0.082457 -0.299093
v 0.033500 -0.072690 -0.299093
v -0.002950 -0.082457 -0.299093
v -0.029634 -0.109140 -0.299093
v -0.039400 -0.145590 -0.299093
v -0.016500 -0.175590 0.000907
v -0.016501 -0.175590 -0.109093
v -0.046500 -0.175590 -0.109093
v -0.046500 -0.175590 0.000907
v -0.016500 -0.125590 0.000907
v -0.046500 -0.125590 0.000907
v -0.046500 -0.125590 -0.109093
v -0.016501 -0.125590 -0.109093
vn -0.0000 -0.0000 -1.0000
vn -0.0000 -0.3421 -0.9397
vn -0.1711 -0.2962 -0.9397
vn -0.2963 -0.1710 -0.9397
vn -0.2962 -0.1710 -0.9397
vn -0.3421 -0.0000 -0.9397
vn -0.2962 0.1711 -0.9397
vn -0.1710 0.2963 -0.9397
vn -0.1710 0.2962 -0.9397
vn -0.0000 0.3421 -0.9397
vn 0.1711 0.2962 -0.9397
vn 0.2963 0.1710 -0.9397
vn 0.2962 0.1710 -0.9397
vn 0.3421 -0.0000 -0.9397
vn 0.2962 -0.1711 -0.9397
vn 0.1710 -0.2963 -0.9397
vn 0.1710 -0.2962 -0.9397
vn -0.0000 -0.6428 -0.7660
vn -0.3215 -0.5567 -0.7660
vn -0.3214 -0.5567 -0.7660
vn -0.5567 -0.3214 -0.7660
vn -0.6428 -0.0000 -0.7660
vn -0.5566 0.3214 -0.7660
vn -0.5567 0.3214 -0.7660
vn -0.3214 0.5567 -0.7660
vn -0.0000 0.6428 -0.7660
vn 0.3215 0.5567 -0.7660
vn 0.3214 0.5567 -0.7660
vn 0.5567 0.3214 -0.7660
vn 0.6428 -0.0000 -0.7660
vn 0.5566 -0.3214 -0.7660
vn 0.5567 -0.3214 -0.7660
vn 0.3214 -0.5567 -0.7660
vn -0.0000 -0.8660 -0.5000
vn -0.4331 -0.7500 -0.5000
vn -0.4330 -0.7500 -0.5000
vn -0.7500 -0.4330 -0.5000
vn -0.8660 -0.0000 -0.5000
vn -0.7500 0.4331 -0.5000
vn -0.7500 0.4330 -0.5000
vn -0.4330 0.7500 -0.5000
vn -0.0000 0.8660 -0.5000
vn 0.4330 0.7500 -0.5000
vn 0.4331 0.7500 -0.5000
vn 0.7500 0.4330 -0.5000
vn 0.8660 -0.0000 -0.5000
vn 0.7500 -0.4331 -0.5000
vn 0.7500 -0.4330 -0.5000
vn 0.4330 -0.7500 -0.5000
vn -0.0000 -0.9848 -0.1736
vn -0.0001 -0.9848 -0.1736
vn -0.4924 -0.8529 -0.1736
vn -0.4925 -0.8528 -0.1736
vn -0.8529 -0.4924 -0.1736
vn -0.9848 0.0001 -0.1736
vn -0.8529 0.4924 -0.1736
vn -0.8528 0.4925 -0.1736
vn -0.4924 0.8529 -0.1736
vn -0.0000 0.9848 -0.1736
vn 0.0001 0.9848 -0.1736
vn 0.4925 0.8528 -0.1736
vn 0.8529 0.4924 -0.1736
vn 0.9848 -0.0001 -0.1736
vn 0.8529 -0.4924 -0.1736
vn 0.8528 -0.4925 -0.1736
vn 0.4924 -0.8529 -0.1736
vn -0.0000 -0.9848 0.1737
vn -0.4924 -0.8529 0.1737
vn -0.8529 -0.4924 0.1737
vn -0.9848 -0.0000 0.1737
vn -0.8529 0.4924 0.1737
vn -0.8528 0.4924 0.1737
vn -0.4924 0.8529 0.1737
vn -0.0000 0.9848 0.1737
vn 0.4924 0.8529 0.1737
vn 0.4924 0.8528 0.1737
vn 0.8529 0.4924 0.1737
vn 0.9848 -0.0000 0.1737
vn 0.8529 -0.4924 0.1737
vn 0.8528 -0.4924 0.1737
vn 0.4924 -0.8529 0.1737
vn -0.0000 -0.8660 0.5000
vn -0.4330 -0.7500 0.5000
vn -0.4331 -0.7500 0.5000
vn -0.7500 -0.4330 0.5000
vn -0.8660 0.0001 0.5000
vn -0.8660 -0.0000 0.5000
vn -0.8660 -0.0000 0.5001
vn -0.7500 0.4330 0.5000
vn -0.4330 0.7500 0.5000
vn -0.0000 0.8660 0.5000
vn 0.4330 0.7500 0.5000
vn 0.4331 0.7500 0.5000
vn 0.7500 0.4330 0.5000
vn 0.8660 -0.0001 0.5000
vn 0.8660 -0.0000 0.5000
vn 0.8660 -0.0000 0.5001
vn 0.7500 -0.4330 0.5000
vn 0.4330 -0.7500 0.5000
vn -0.0000 -0.6428 0.7661
vn -0.3214 -0.5566 0.7661
vn -0.5567 -0.3213 0.7661
vn -0.6428 -0.0000 0.7661
vn -0.5566 0.3214 0.7661
vn -0.3213 0.5567 0.7661
vn -0.0000 0.6428 0.7661
vn 0.3214 0.5566 0.7661
vn 0.5567 0.3213 0.7661
vn 0.6428 -0.0000 0.7661
vn 0.5566 -0.3214 0.7661
vn 0.3213 -0.5567 0.7661
vn -0.0000 -0.3420 0.9397
vn -0.1710 -0.2962 0.9397
vn -0.2962 -0.1710 0.9397
vn -0.3420 -0.0000 0.9397
vn -0.2962 0.1710 0.9397
vn -0.1710 0.2962 0.9397
vn -0.0000 0.3420 0.9397
vn 0.1710 0.2962 0.9397
vn 0.2962 0.1710 0.9397
vn 0.3420 -0.0000 0.9397
vn 0.2962 -0.1710 0.9397
vn 0.1710 -0.2962 0.9397
vn -1.0000 0.0001 -0.0001
vn -1.0000 0.0001 -0.0000
vn -0.8660 0.5000 -0.0001
vn -0.8660 0.5000 -0.0000
vn -0.5000 0.8661 -0.0000
vn 0.0001 1.0000 -0.0000
vn 0.5000 0.8660 -0.0001
vn 0.5000 0.8660 -0.0000
vn 0.8661 0.5000 -0.0001
vn 0.8661 0.5000 -0.0000
vn 1.0000 -0.0001 -0.0000
vn 0.8660 -0.5000 -0.0000
vn 0.5000 -0.8661 -0.0000
vn -0.0001 -1.0000 -0.0000
vn -0.5000 -0.8660 -0.0000
vn -0.8661 -0.5000 -0.0000
vn -0.5766 -0.5766 0.5789
vn -0.7876 0.2110 -0.5789
vn -0.2110 -0.7876 0.5789
vn 0.2110 -0.7876 0.5789
vn 0.5766 -0.5766 0.5789
vn 0.7876 -0.2110 0.5789
vn 0.7876 0.2110 0.5789
vn 0.5766 0.5766 0.5789
vn 0.2110 0.7876 0.5789
vn -0.2110 0.7876 0.5789
vn -0.5766 0.5766 0.5789
vn -0.7876 0.2110 0.5789
vn -0.7876 -0.2110 0.5789
vn -0.6662 -0.6662 0.3353
vn -0.2438 -0.9100 0.3353
vn 0.2438 -0.9100 0.3353
vn 0.6662 -0.6662 0.3353
vn 0.9100 -0.2438 0.3353
vn 0.9100 0.2438 0.3353
vn 0.6662 0.6662 0.3353
vn 0.2438 0.9100 0.3353
vn -0.2438 0.9100 0.3353
vn -0.6662 0.6662 0.3353
vn -0.9100 0.2438 0.3353
vn -0.9100 -0.2438 0.3353
vn -0.4585 -0.4585 -0.7613
vn -0.1678 -0.6263 -0.7613
vn 0.1678 -0.6263 -0.7613
vn 0.4585 -0.4585 -0.7613
vn 0.6263 -0.1678 -0.7613
vn 0.6263 0.1678 -0.7613
vn 0.4585 0.4585 -0.7613
vn 0.1678 0.6263 -0.7613
vn -0.1678 0.6263 -0.7613
vn -0.4585 0.4585 -0.7613
vn -0.6263 0.1678 -0.7613
vn -0.6263 -0.1678 -0.7613
vn -0.6252 -0.6252 0.4671
vn -0.2288 -0.8541 0.4671
vn 0.2288 -0.8541 0.4671
vn 0.6252 -0.6252 0.4671
vn 0.8541 -0.2288 0.4671
vn 0.8541 0.2288 0.4671
vn 0.6252 0.6252 0.4671
vn 0.2288 0.8541 0.4671
vn -0.2288 0.8541 0.4671
vn -0.6252 0.6252 0.4671
vn -0.8541 0.2288 0.4671
vn -0.8541 -0.2288 0.4671
vn -0.5766 0.5766 -0.5789
vn -0.2110 0.7876 -0.5789
vn 0.2110 0.7876 -0.5789
vn 0.5766 0.5766 -0.5789
vn 0.7876 0.2110 -0.5789
vn 0.7876 -0.2110 -0.5789
vn 0.5766 -0.5766 -0.5789
vn 0.2110 -0.7876 -0.5789
vn -0.2110 -0.7876 -0.5789
vn -0.5766 -0.5766 -0.5789
vn -0.7876 -0.2110 -0.5789
vn -0.0000 -1.0000 -0.0000
vn -0.0000 1.0000 -0.0000
vn 1.0000 -0.0000 -0.0000
vn -1.0000 -0.0000 -0.0000
vn -0.0000 -0.0000 1.0000
vn -0.7071 -0.7071 -0.0000
vn -0.2588 -0.9659 -0.0000
vn 0.2588 -0.9659 -0.0000
vn 0.7071 -0.7071 -0.0000
vn 0.9659 -0.2588 -0.0000
vn 0.9659 0.2588 -0.0000
vn 0.7071 0.7071 -0.0000
vn 0.2588 0.9659 -0.0000
vn -0.2588 0.9659 -0.0000
vn -0.7071 0.7071 -0.0000
vn -0.9659 0.2588 -0.0000
vn -0.9659 -0.2588 -0.0000
vn 0.5753 0.5753 -0.5814
vn 0.2106 0.7859 -0.5814
vn -0.2106 0.7859 -0.5814
vn -0.5753 0.5753 -0.5814
vn -0.7859 0.2106 -0.5814
vn -0.7859 -0.2106 -0.5814
vn -0.5753 -0.5753 -0.5814
vn -0.2106 -0.7859 -0.5814
vn 0.2106 -0.7859 -0.5814
vn 0.5753 -0.5753 -0.5814
vn 0.7859 -0.2106 -0.5814
vn 0.7859 0.2106 -0.5814
vn -0.3662 -0.3662 -0.8554
vn -0.1340 -0.5003 -0.8554
vn 0.1340 -0.5003 -0.8554
vn 0.3662 -0.3662 -0.8554
vn 0.5003 -0.1340 -0.8554
vn 0.5003 0.1340 -0.8554
vn 0.3662 0.3662 -0.8554
vn 0.1340 0.5003 -0.8554
vn -0.1340 0.5003 -0.8554
vn -0.3662 0.3662 -0.8554
vn -0.5003 0.1340 -0.8554
vn -0.5003 -0.1340 -0.8554
s 1
usemtl mat21
f 3//1 2//1 1//1
f 2//1 4//1 1//1
f 4//1 5//1 1//1
f 5//1 6//1 1//1
f 6//1 7//1 1//1
f 7//1 8//1 1//1
f 8//1 9//1 1//1
f 9//1 10//1 1//1
f 10//1 11//1 1//1
f 11//1 12//1 1//1
f 12//1 13//1 1//1
f 13//1 3//1 1//1
f 15//2 14//2 2//2 3//2
f 14//3 16//3 4//3 2//3
f 16//4 17//5 5//4 4//4
f 17//6 18//6 6//6 5//6
f 18//7 19//7 7//7 6//7
f 19//8 20//9 8//8 7//8
f 20//10 21//10 9//10 8//10
f 21//11 22//11 10//11 9//11
f 22//12 23//13 11//12 10//13
f 23//14 24//14 12//14 11//14
f 24//15 25//15 13//15 12//15
f 25//16 15//17 3//16 13//16
f 27//18 26//18 14//18 15//18
f 26//19 28//20 16//19 14//20
f 28//21 29//21 17//21 16//21
f 29//22 30//22 18//22 17//22
f 30//23 31//24 19//24 18//24
f 31//25 32//25 20//25 19//25
f 32//26 33//26 21//26 20//26
f 33//27 34//28 22//27 21//28
f 34//29 35//29 23//29 22//29
f 35//30 36//30 24//30 23//30
f 36//31 37//32 25//32 24//32
f 37//33 27//33 15//33 25//33
f 39//34 38//34 26//34 27//34
f 38//35 40//36 28//36 26//36
f 40//37 41//37 29//37 28//37
f 41//38 42//38 30//38 29//38
f 42//39 43//40 31//40 30//40
f 43//41 44//41 32//41 31//41
f 44//42 45//42 33//42 32//42
f 45//43 46//43 34//44 33//43
f 46//45 47//45 35//45 34//45
f 47//46 48//46 36//46 35//46
f 48//47 49//48 37//47 36//48
f 49//49 39//49 27//49 37//49
f 51//50 50//50 38//51 39//51
f 50//52 52//52 40//53 38//53
f 52//54 53//54 41//54 40//54
f 53//55 54//55 42//55 41//55
f 54//56 55//57 43//57 42//57
f 55//58 56//58 44//58 43//58
f 56//59 57//59 45//60 44//60
f 57//61 58//61 46//61 45//61
f 58//62 59//62 47//62 46//62
f 59//63 60//63 48//63 47//63
f 60//64 61//64 49//65 48//65
f 61//66 51//66 39//66 49//66
f 63//67 62//67 50//67 51//67
f 62//68 64//68 52//68 50//68
f 64//69 65//69 53//69 52//69
f 65//70 66//70 54//70 53//70
f 66//71 67//71 55//72 54//71
f 67//73 68//73 56//73 55//73
f 68//74 69//74 57//74 56//74
f 69//75 70//76 58//76 57//75
f 70//77 71//77 59//77 58//77
f 71//78 72//78 60//78 59//78
f 72//79 73//79 61//80 60//79
f 73//81 63//81 51//81 61//81
f 75//82 74//82 62//82 63//82
f 74//83 76//84 64//83 62//84
f 76//85 77//85 65//85 64//85
f 77//86 78//86 66//87 65//88
f 78//89 79//89 67//89 66//89
f 79//90 80//90 68//90 67//90
f 80//91 81//91 69//91 68//91
f 81//92 82//93 70//92 69//93
f 82//94 83//94 71//94 70//94
f 83//95 84//95 72//96 71//97
f 84//98 85//98 73//98 72//98
f 85//99 75//99 63//99 73//99
f 87//100 86//100 74//100 75//100
f 86//101 88//101 76//101 74//101
f 88//102 89//102 77//102 76//102
f 89//103 90//103 78//103 77//103
f 90//104 91//104 79//104 78//104
f 91//105 92//105 80//105 79//105
f 92//106 93//106 81//106 80//106
f 93//107 94//107 82//107 81//107
f 94//108 95//108 83//108 82//108
f 95//109 96//109 84//109 83//109
f 96//110 97//110 85//110 84//110
f 97//111 87//111 75//111 85//111
f 98//112 86//112 87//112
f 98//113 88//113 86//113
f 98//114 89//114 88//114
f 98//115 90//115 89//115
f 98//116 91//116 90//116
f 98//117 92//117 91//117
f 98//118 93//118 92//118
f 98//119 94//119 93//119
f 98//120 95//120 94//120
f 98//121 96//121 95//121
f 98//122 97//122 96//122
f 98//123 87//123 97//123
usemtl mat13
f 102//124 101//125 100//125 99//125
f 101//126 104//127 103//127 100//127
f 104//128 106//128 105//128 103//128
f 106//129 108//129 107//129 105//129
f 108//130 110//131 109//131 107//131
f 110//132 112//133 111//133 109//133
f 112//134 114//134 113//134 111//134
f 114//135 116//135 115//135 113//135
f 116//136 118//136 117//136 115//136
f 118//137 120//137 119//137 117//137
f 120//138 122//138 121//138 119//138
f 122//139 102//139 99//139 121//139
f 124//140 123//140 119//140 121//140
f 126//141 125//141 101//141 102//141
f 123//142 127//142 117//142 119//142
f 127//143 128//143 115//143 117//143
f 128//144 129//144 113//144 115//144
f 129//145 130//145 111//145 113//145
f 130//146 131//146 109//146 111//146
f 131//147 132//147 107//147 109//147
f 132//148 133//148 105//148 107//148
f 133//149 134//149 103//149 105//149
f 134//150 135//150 100//150 103//150
f 135//151 136//151 99//151 100//151
f 136//152 124//152 121//152 99//152
f 138//153 137//153 123//153 124//153
f 137//154 139//154 127//154 123//154
f 139//155 140//155 128//155 127//155
f 140//156 141//156 129//156 128//156
f 141//157 142//157 130//157 129//157
f 142//158 143//158 131//158 130//158
f 143//159 144//159 132//159 131//159
f 144//160 145//160 133//160 132//160
f 145//161 146//161 134//161 133//161
f 146//162 147//162 135//162 134//162
f 147//163 148//163 136//163 135//163
f 148//164 138//164 124//164 136//164
f 150//165 149//165 137//165 138//165
f 149//166 151//166 139//166 137//166
f 151//167 152//167 140//167 139//167
f 152//168 153//168 141//168 140//168
f 153//169 154//169 142//169 141//169
f 154//170 155//170 143//170 142//170
f 155//171 156//171 144//171 143//171
f 156//172 157//172 145//172 144//172
f 157//173 158//173 146//173 145//173
f 158//174 159//174 147//174 146//174
f 159//175 160//175 148//175 147//175
f 160//176 150//176 138//176 148//176
f 162//177 161//177 149//177 150//177
f 161//178 163//178 151//178 149//178
f 163//179 164//179 152//179 151//179
f 164//180 165//180 153//180 152//180
f 165//181 166//181 154//181 153//181
f 166//182 167//182 155//182 154//182
f 167//183 168//183 156//183 155//183
f 168//184 169//184 157//184 156//184
f 169//185 170//185 158//185 157//185
f 170//186 171//186 159//186 158//186
f 171//187 172//187 160//187 159//187
f 172//188 162//188 150//188 160//188
f 125//189 197//189 104//189 101//189
f 197//190 198//190 106//190 104//190
f 198//191 199//191 108//191 106//191
f 199//192 200//192 110//192 108//192
f 200//193 201//193 112//193 110//193
f 201//194 202//194 114//194 112//194
f 202//195 203//195 116//195 114//195
f 203//196 204//196 118//196 116//196
f 204//197 205//197 120//197 118//197
f 205//198 206//198 122//198 120//198
f 206//199 126//199 102//199 122//199
f 258//200 257//200 256//200 255//200
f 262//201 261//201 260//201 259//201
f 256//202 262//202 259//202 255//202
f 260//203 261//203 257//203 258//203
f 259//204 260//204 258//204 255//204
f 257//1 261//1 262//1 256//1
usemtl mat23
f 174//205 173//205 161//205 162//205
f 173//206 175//206 163//206 161//206
f 175//207 176//207 164//207 163//207
f 176//208 177//208 165//208 164//208
f 177//209 178//209 166//209 165//209
f 178//210 179//210 167//210 166//210
f 179//211 180//211 168//211 167//211
f 180//212 181//212 169//212 168//212
f 181//213 182//213 170//213 169//213
f 182//214 183//214 171//214 170//214
f 183//215 184//215 172//215 171//215
f 184//216 174//216 162//216 172//216
f 186//217 185//217 173//217 174//217
f 185//218 187//218 175//218 173//218
f 187//219 188//219 176//219 175//219
f 188//220 189//220 177//220 176//220
f 189//221 190//221 178//221 177//221
f 190//222 191//222 179//222 178//222
f 191//223 192//223 180//223 179//223
f 192//224 193//224 181//224 180//224
f 193//225 194//225 182//225 181//225
f 194//226 195//226 183//226 182//226
f 195//227 196//227 184//227 183//227
f 196//228 186//228 174//228 184//228
f 196//1 195//1 194//1 193//1 192//1 191//1 190//1 189//1 188//1 187//1 185//1 186//1
f 208//215 207//215 125//215 126//215
f 207//214 209//214 197//214 125//214
f 209//213 210//213 198//213 197//213
f 210//212 211//212 199//212 198//212
f 211//211 212//211 200//211 199//211
f 212//210 213//210 201//210 200//210
f 213//209 214//209 202//209 201//209
f 214//208 215//208 203//208 202//208
f 215//207 216//207 204//207 203//207
f 216//206 217//206 205//206 204//206
f 217//205 218//205 206//205 205//205
f 218//216 208//216 126//216 206//216
f 218//204 217//204 216//204 215//204 214//204 213//204 212//204 211//204 210//204 209//204 207//204 208//204
usemtl mat24
f 222//215 221//215 220//215 219//215
f 221//214 224//214 223//214 220//214
f 224//213 226//213 225//213 223//213
f 226//212 228//212 227//212 225//212
f 228//211 230//211 229//211 227//211
f 230//210 232//210 231//210 229//210
f 232//209 234//209 233//209 231//209
f 234//208 236//208 235//208 233//208
f 236//207 238//207 237//207 235//207
f 238//206 240//206 239//206 237//206
f 240//205 242//205 241//205 239//205
f 242//216 222//216 219//216 241//216
f 244//229 243//229 239//229 241//229
f 242//204 240//204 238//204 236//204 234//204 232//204 230//204 228//204 226//204 224//204 221//204 222//204
f 243//230 245//230 237//230 239//230
f 245//231 246//231 235//231 237//231
f 246//232 247//232 233//232 235//232
f 247//233 248//233 231//233 233//233
f 248//234 249//234 229//234 231//234
f 249//235 250//235 227//235 229//235
f 250//236 251//236 225//236 227//236
f 251//237 252//237 223//237 225//237
f 252//238 253//238 220//238 223//238
f 253//239 254//239 219//239 220//239
f 254//240 244//240 241//240 219//240
f 254//1 253//1 252//1 251//1 250//1 249//1 248//1 247//1 246//1 245//1 243//1 244//1
