# Blender 5.0.1
# www.blender.org
mtllib Flashlight4.mtl
o Health
v 0.039244 -0.430506 -0.196754
v -0.027818 -0.358564 -0.196754
v 0.037613 -0.357110 -0.196754
v -0.026187 -0.431960 -0.196754
v -0.029193 -0.296723 -0.196754
v -0.108505 -0.360357 -0.196145
v -0.109879 -0.298516 -0.196145
v 0.034607 -0.221872 -0.196754
v 0.036238 -0.295269 -0.196754
v 0.118479 -0.355312 -0.196145
v 0.117104 -0.293471 -0.196145
v -0.030824 -0.223326 -0.196754
v -0.049994 -0.001025 -0.031419
v 0.044439 0.005820 -0.166613
v -0.050831 0.003703 -0.166613
v 0.044880 0.001084 -0.031419
v 0.145221 0.008060 -0.166203
v -0.035897 -0.642649 -0.193119
v -0.135472 -0.593858 -0.201135
v -0.036734 -0.591663 -0.201954
v 0.058236 -0.640557 -0.193119
v 0.155768 -0.587385 -0.201135
v 0.157816 -0.638344 -0.192402
v 0.056810 -0.589584 -0.201954
v 0.159964 -0.655297 -0.166204
v 0.059412 -0.652786 -0.031419
v 0.059182 -0.657537 -0.166613
v 0.345505 -0.646427 -0.031173
v 0.159660 -0.650558 -0.031296
v -0.405678 -0.464994 -0.026509
v -0.394640 -0.379394 -0.150333
v -0.392702 -0.466577 -0.150333
v -0.415254 -0.596302 -0.027716
v -0.401835 -0.599777 -0.154334
v -0.399423 -0.646225 -0.028210
v -0.388224 -0.650479 -0.155971
v -0.136651 -0.661890 -0.166204
v -0.036088 -0.659654 -0.166613
v -0.135721 -0.657122 -0.031296
v -0.321382 -0.661249 -0.031173
v -0.323087 -0.666033 -0.165794
v 0.330972 0.007442 -0.031172
v 0.331844 0.012208 -0.165794
v 0.145127 0.003312 -0.031296
v -0.150254 -0.003253 -0.031296
v -0.151394 0.001468 -0.166203
v -0.335914 -0.007379 -0.031172
v 0.413796 -0.007475 -0.028210
v 0.416030 -0.053927 -0.154334
v 0.401825 -0.003238 -0.155971
v 0.408786 -0.274312 -0.150333
v 0.420589 -0.188694 -0.026509
v 0.422499 -0.274631 -0.026509
v 0.410724 -0.361495 -0.150333
v 0.426319 -0.446503 -0.026509
v 0.412661 -0.448678 -0.150333
v 0.424409 -0.360567 -0.026509
v -0.409498 -0.293122 -0.026509
v -0.396577 -0.292211 -0.150333
v -0.407588 -0.379058 -0.026509
v 0.322634 -0.276226 -0.195123
v 0.375757 -0.187819 -0.170371
v 0.377695 -0.275003 -0.170371
v 0.324571 -0.363409 -0.195123
v -0.398515 -0.205028 -0.150333
v -0.426808 -0.076433 -0.027716
v -0.413557 -0.072364 -0.154334
v -0.411408 -0.207186 -0.026509
v -0.035462 -0.654894 -0.031419
v 0.327291 -0.055899 -0.200317
v 0.384004 -0.054639 -0.174905
v 0.320696 -0.189043 -0.195123
v 0.144047 -0.059972 -0.201135
v 0.044248 -0.011185 -0.193118
v 0.143828 -0.008972 -0.192402
v -0.147194 -0.066444 -0.201135
v -0.049884 -0.013277 -0.193118
v -0.048456 -0.064250 -0.201954
v -0.149245 -0.015486 -0.192402
v -0.330247 -0.070513 -0.200317
v -0.333453 -0.019580 -0.191686
v 0.430213 -0.057385 -0.027716
v 0.406848 -0.187128 -0.150333
v 0.045088 -0.062171 -0.201954
v -0.315705 -0.290413 -0.195123
v -0.368005 -0.204350 -0.170371
v -0.317642 -0.203230 -0.195123
v -0.364130 -0.378716 -0.170371
v -0.366068 -0.291533 -0.170371
v -0.382129 -0.071666 -0.174905
v -0.388224 -0.650479 -0.155971
v -0.399423 -0.646225 -0.028210
v -0.379971 -0.033837 -0.172240
v 0.401825 -0.003238 -0.155971
v 0.413796 -0.007475 -0.028210
v -0.313767 -0.377596 -0.195123
v -0.362192 -0.465899 -0.170371
v 0.328224 -0.004874 -0.191686
v 0.379704 -0.016953 -0.172240
v 0.339013 -0.583312 -0.200317
v 0.342212 -0.634245 -0.191686
v -0.319465 -0.648951 -0.191686
v -0.366571 -0.636775 -0.172240
v -0.318525 -0.597926 -0.200317
v -0.135257 -0.644857 -0.192402
v -0.311830 -0.464779 -0.195123
v 0.346587 -0.651150 -0.165794
v 0.415812 -0.632610 -0.155971
v 0.427583 -0.627845 -0.028210
v -0.402212 -0.021108 -0.155971
v -0.337830 -0.002676 -0.165794
v -0.413211 -0.025856 -0.028210
v -0.413211 -0.025856 -0.028210
v -0.402212 -0.021108 -0.155971
v 0.379633 -0.362186 -0.170371
v 0.381570 -0.449369 -0.170371
v 0.326509 -0.450592 -0.195123
v -0.370408 -0.599079 -0.174905
v 0.427583 -0.627845 -0.028210
v 0.427752 -0.581340 -0.154334
v 0.441767 -0.577255 -0.027716
v 0.395726 -0.582052 -0.174905
v 0.393104 -0.619891 -0.172240
v 0.415812 -0.632610 -0.155971
v 0.039244 -0.430506 0.196754
v 0.037613 -0.357110 0.196754
v -0.027818 -0.358564 0.196754
v -0.026187 -0.431960 0.196754
v -0.029193 -0.296723 0.196754
v 0.036238 -0.295269 0.196754
v 0.034607 -0.221872 0.196754
v -0.030824 -0.223326 0.196754
v 0.118479 -0.355312 0.196145
v -0.108505 -0.360357 0.196145
v -0.109879 -0.298516 0.196145
v 0.117104 -0.293471 0.196145
v 0.044880 0.001084 0.031419
v 0.145221 0.008060 0.166204
v 0.145127 0.003312 0.031296
v -0.050831 0.003703 0.166613
v -0.049994 -0.001025 0.031419
v -0.150254 -0.003253 0.031296
v 0.044439 0.005820 0.166613
v -0.035897 -0.642649 0.193119
v -0.135472 -0.593858 0.201135
v -0.135257 -0.644857 0.192402
v 0.058236 -0.640557 0.193119
v 0.155768 -0.587385 0.201135
v 0.056810 -0.589584 0.201954
v -0.036734 -0.591663 0.201954
v 0.159964 -0.655297 0.166203
v 0.345505 -0.646427 0.031172
v 0.346587 -0.651150 0.165794
v 0.059412 -0.652786 0.031419
v 0.159660 -0.650558 0.031296
v -0.405678 -0.464994 0.026509
v -0.394640 -0.379394 0.150333
v -0.407588 -0.379058 0.026509
v -0.415254 -0.596302 0.027716
v -0.392702 -0.466577 0.150333
v -0.401835 -0.599777 0.154334
v -0.399423 -0.646225 0.028210
v -0.388224 -0.650479 0.155971
v -0.135721 -0.657122 0.031296
v -0.036088 -0.659654 0.166613
v -0.136651 -0.661890 0.166203
v -0.035462 -0.654894 0.031419
v -0.321382 -0.661249 0.031172
v 0.330972 0.007442 0.031173
v -0.151394 0.001468 0.166204
v -0.335914 -0.007379 0.031173
v -0.337830 -0.002676 0.165794
v 0.413796 -0.007475 0.028210
v 0.416030 -0.053927 0.154334
v 0.430213 -0.057385 0.027716
v 0.408786 -0.274312 0.150333
v 0.420589 -0.188694 0.026509
v 0.406848 -0.187128 0.150333
v 0.422499 -0.274631 0.026509
v 0.410724 -0.361495 0.150333
v 0.424409 -0.360567 0.026509
v 0.426319 -0.446503 0.026509
v -0.409498 -0.293122 0.026509
v 0.322634 -0.276226 0.195123
v 0.375757 -0.187819 0.170371
v 0.320696 -0.189043 0.195123
v -0.398515 -0.205028 0.150333
v -0.426808 -0.076433 0.027716
v -0.411408 -0.207186 0.026509
v -0.396577 -0.292211 0.150333
v 0.059182 -0.657537 0.166613
v 0.377695 -0.275003 0.170371
v 0.327291 -0.055899 0.200317
v 0.144047 -0.059972 0.201135
v 0.044248 -0.011185 0.193119
v 0.045088 -0.062171 0.201954
v 0.143828 -0.008972 0.192402
v 0.328224 -0.004874 0.191686
v -0.147194 -0.066444 0.201135
v -0.049884 -0.013277 0.193119
v -0.149245 -0.015486 0.192402
v -0.330247 -0.070513 0.200317
v 0.401825 -0.003238 0.155971
v -0.048456 -0.064250 0.201954
v -0.317642 -0.203230 0.195123
v -0.368005 -0.204350 0.170371
v -0.382129 -0.071666 0.174905
v -0.315705 -0.290413 0.195123
v -0.366068 -0.291533 0.170371
v -0.323087 -0.666033 0.165794
v -0.388224 -0.650479 0.155971
v -0.399423 -0.646225 0.028210
v -0.379971 -0.033837 0.172240
v -0.333453 -0.019580 0.191686
v 0.401825 -0.003238 0.155971
v 0.413796 -0.007475 0.028210
v 0.331844 0.012208 0.165794
v -0.364130 -0.378716 0.170371
v -0.313767 -0.377596 0.195123
v 0.379704 -0.016953 0.172240
v 0.384004 -0.054639 0.174905
v 0.157816 -0.638344 0.192402
v 0.339013 -0.583312 0.200317
v -0.319465 -0.648951 0.191686
v -0.318525 -0.597926 0.200317
v -0.366571 -0.636775 0.172240
v -0.362192 -0.465899 0.170371
v -0.370408 -0.599079 0.174905
v 0.415812 -0.632610 0.155971
v 0.427583 -0.627845 0.028210
v -0.402212 -0.021108 0.155971
v -0.413211 -0.025856 0.028210
v -0.413557 -0.072364 0.154334
v -0.413211 -0.025856 0.028210
v -0.402212 -0.021108 0.155971
v 0.324571 -0.363409 0.195123
v 0.381570 -0.449369 0.170371
v 0.379633 -0.362186 0.170371
v 0.326509 -0.450592 0.195123
v 0.395726 -0.582052 0.174905
v 0.427583 -0.627845 0.028210
v 0.427752 -0.581340 0.154334
v 0.415812 -0.632610 0.155971
v -0.311830 -0.464780 0.195123
v 0.342212 -0.634245 0.191686
v 0.393104 -0.619891 0.172240
v 0.412661 -0.448678 0.150333
v 0.441767 -0.577255 0.027716
v -0.163608 -0.729228 -0.032927
v -0.162714 -0.728088 0.032744
v -0.173073 -0.693858 -0.034799
v 0.205205 -0.636117 -0.034799
v 0.205207 -0.685007 0.034584
v 0.206301 -0.685428 -0.034799
v 0.169737 -0.729205 -0.032685
v 0.197473 -0.720085 0.032744
v 0.168992 -0.728048 0.032514
v 0.145471 -0.727367 -0.031791
v 0.198416 -0.721184 -0.032928
v -0.110545 -0.733057 -0.031791
v -0.133908 -0.734778 0.032514
v -0.134601 -0.735967 -0.032685
v 0.145447 -0.726270 0.031620
v -0.133908 -0.734778 0.032514
v -0.110569 -0.731960 0.031620
v -0.123316 -0.716602 0.033913
v -0.150572 -0.712592 0.034273
v 0.204121 -0.636141 0.034584
v 0.197473 -0.720085 0.032744
v 0.198416 -0.721184 -0.032928
v -0.162714 -0.728088 0.032744
v -0.171999 -0.693389 0.034583
v 0.168992 -0.728048 0.032514
v 0.184651 -0.705141 0.034273
v 0.157601 -0.710359 0.033913
v 0.145447 -0.726270 0.031620
v 0.197473 -0.720085 0.032744
v 0.205207 -0.685007 0.034584
v 0.193156 -0.680373 0.036431
v -0.110545 -0.733057 -0.031791
v -0.123316 -0.716602 -0.033913
v -0.110922 -0.716079 -0.033034
v 0.206301 -0.685428 -0.034799
v 0.184651 -0.705141 -0.034273
v 0.193157 -0.680373 -0.036431
v 0.205205 -0.636117 -0.034799
v 0.192179 -0.636406 -0.036431
v -0.171999 -0.693389 0.034583
v -0.173085 -0.644524 0.034583
v -0.174169 -0.644548 -0.034799
v 0.184651 -0.705141 0.034273
v 0.157601 -0.710359 -0.033913
v 0.157601 -0.710359 0.033913
v -0.161146 -0.644259 -0.036431
v -0.160169 -0.688226 0.036431
v -0.160169 -0.688226 -0.036431
v 0.184651 -0.705141 -0.034273
v 0.145094 -0.710389 -0.033034
v 0.145094 -0.710389 0.033034
v -0.161146 -0.644259 0.036431
v -0.150572 -0.712592 0.034273
v -0.150572 -0.712592 -0.034273
v -0.150572 -0.712592 -0.034273
v -0.123316 -0.716602 0.033913
v -0.123316 -0.716602 -0.033913
v -0.110922 -0.716079 -0.033034
v -0.150572 -0.712592 0.034273
v 0.193157 -0.680373 -0.036431
v 0.193156 -0.680373 0.036431
v 0.192179 -0.636406 -0.036431
v 0.192179 -0.636406 0.036431
v 0.184651 -0.705141 -0.034273
v 0.184651 -0.705141 0.034273
v -0.110922 -0.716079 0.033034
v -0.160169 -0.688226 0.036431
v -0.173085 -0.644524 0.034583
v -0.161146 -0.644259 0.036431
v 0.198416 -0.721184 -0.032928
v 0.169737 -0.729205 -0.032685
v 0.204121 -0.636141 0.034584
v 0.192179 -0.636406 0.036431
v -0.160169 -0.688226 -0.036431
v -0.174169 -0.644548 -0.034799
v -0.161146 -0.644259 -0.036431
v -0.173073 -0.693858 -0.034799
v -0.150572 -0.712592 -0.034273
v -0.163608 -0.729228 -0.032927
v 0.145471 -0.727367 -0.031791
v 0.145094 -0.710389 -0.033034
v 0.157601 -0.710359 -0.033913
v -0.134601 -0.735967 -0.032685
v -0.110569 -0.731960 0.031620
v -0.162714 -0.728088 0.032744
v -0.163608 -0.729228 -0.032927
v -0.110922 -0.716079 0.033034
v 0.145094 -0.710389 0.033034
v 0.039244 -0.430506 -0.196754
v 0.049711 -0.371622 -0.196795
v 0.051487 -0.451550 -0.196795
v -0.026187 -0.431960 -0.196754
v -0.037500 -0.453528 -0.196795
v -0.029193 -0.296723 -0.196754
v -0.109879 -0.298516 -0.196145
v -0.041308 -0.282210 -0.196795
v -0.027818 -0.358564 -0.196754
v -0.039277 -0.373600 -0.196795
v 0.037613 -0.357110 -0.196754
v 0.118479 -0.355312 -0.196145
v -0.108505 -0.360357 -0.196145
v -0.030824 -0.223326 -0.196754
v 0.117104 -0.293471 -0.196145
v 0.143859 -0.369530 -0.196063
v 0.047680 -0.280233 -0.196795
v 0.141828 -0.278140 -0.196063
v -0.043084 -0.202283 -0.196795
v 0.045903 -0.200305 -0.196795
v 0.034607 -0.221872 -0.196754
v -0.133195 -0.375688 -0.196063
v -0.135226 -0.284298 -0.196063
v 0.036238 -0.295269 -0.196754
v -0.280106 -0.450945 -0.195397
v -0.313767 -0.377596 -0.195123
v -0.281850 -0.372511 -0.195397
v -0.035897 -0.642649 -0.193119
v 0.058236 -0.640557 -0.193119
v 0.059182 -0.657537 -0.166613
v -0.036088 -0.659654 -0.166613
v -0.285336 -0.215641 -0.195397
v -0.315705 -0.290413 -0.195123
v -0.317642 -0.203230 -0.195123
v -0.049994 -0.001025 -0.031419
v 0.044456 -0.001266 0.000000
v 0.044880 0.001084 -0.031419
v 0.144269 0.000952 0.000000
v 0.145127 0.003312 -0.031296
v -0.296676 -0.096241 -0.200070
v -0.330247 -0.070513 -0.200317
v -0.131991 -0.092581 -0.200806
v -0.147194 -0.066444 -0.201135
v -0.048456 -0.064250 -0.201954
v -0.043159 -0.090607 -0.201543
v 0.045088 -0.062171 -0.201954
v 0.040998 -0.088737 -0.201543
v 0.159660 -0.650558 -0.031296
v 0.343640 -0.644128 -0.000000
v 0.158697 -0.648239 -0.000000
v 0.408786 -0.274312 -0.150333
v 0.379633 -0.362186 -0.170371
v 0.377695 -0.275003 -0.170371
v 0.294882 -0.083094 -0.200070
v 0.144047 -0.059972 -0.201135
v 0.327291 -0.055899 -0.200317
v -0.405678 -0.464994 -0.026509
v -0.415254 -0.596302 -0.027716
v -0.417851 -0.595207 -0.000000
v 0.130025 -0.086758 -0.200806
v 0.294178 -0.438182 -0.195397
v 0.324571 -0.363409 -0.195123
v 0.326509 -0.450592 -0.195123
v -0.286130 -0.570731 -0.200070
v -0.135472 -0.593858 -0.201135
v -0.318525 -0.597926 -0.200317
v -0.121445 -0.567071 -0.200806
v -0.036734 -0.591663 -0.201954
v -0.396577 -0.292211 -0.150333
v -0.398515 -0.205028 -0.150333
v -0.366068 -0.291533 -0.170371
v -0.400621 -0.644031 -0.000000
v 0.288949 -0.202878 -0.195397
v 0.320696 -0.189043 -0.195123
v 0.290692 -0.281312 -0.195397
v 0.322634 -0.276226 -0.195123
v 0.292435 -0.359747 -0.195397
v -0.135721 -0.657122 -0.031296
v -0.035462 -0.654894 -0.031419
v -0.135251 -0.654772 -0.000000
v -0.320011 -0.658878 -0.000000
v -0.321382 -0.661249 -0.031173
v 0.329212 0.005063 0.000000
v 0.330972 0.007442 -0.031172
v -0.150254 -0.003253 -0.031296
v -0.334439 -0.009687 0.000000
v -0.149679 -0.005581 0.000000
v 0.406848 -0.187128 -0.150333
v 0.384004 -0.054639 -0.174905
v 0.416030 -0.053927 -0.154334
v 0.375757 -0.187819 -0.170371
v 0.427752 -0.581340 -0.154334
v 0.393104 -0.619891 -0.172240
v 0.395726 -0.582052 -0.174905
v 0.401825 -0.003238 -0.155971
v 0.379704 -0.016953 -0.172240
v 0.412661 -0.448678 -0.150333
v 0.381570 -0.449369 -0.170371
v 0.410724 -0.361495 -0.150333
v 0.424409 -0.360567 -0.026509
v 0.427421 -0.445555 -0.000000
v 0.426319 -0.446503 -0.026509
v 0.423629 -0.274913 0.000000
v 0.425525 -0.360234 0.000000
v 0.422499 -0.274631 -0.026509
v 0.421733 -0.189592 0.000000
v -0.407588 -0.379058 -0.026509
v -0.408187 -0.464478 -0.000000
v -0.410088 -0.378923 0.000000
v -0.411990 -0.293368 0.000000
v -0.409498 -0.293122 -0.026509
v -0.032614 -0.565097 -0.201543
v 0.056810 -0.589584 -0.201954
v -0.283593 -0.294076 -0.195397
v -0.394640 -0.379394 -0.150333
v -0.364130 -0.378716 -0.170371
v -0.411408 -0.207186 -0.026509
v -0.429353 -0.077642 0.000000
v -0.426808 -0.076433 -0.027716
v -0.413891 -0.207813 0.000000
v -0.413557 -0.072364 -0.154334
v -0.402212 -0.021108 -0.155971
v -0.379971 -0.033837 -0.172240
v -0.382129 -0.071666 -0.174905
v 0.305428 -0.557584 -0.200070
v 0.339013 -0.583312 -0.200317
v 0.059412 -0.652786 -0.031419
v 0.058884 -0.650457 -0.000000
v -0.035530 -0.652555 -0.000000
v 0.051544 -0.563226 -0.201543
v 0.140571 -0.561248 -0.200806
v 0.155768 -0.587385 -0.201135
v 0.420589 -0.188694 -0.026509
v 0.431418 -0.059219 0.000000
v 0.430213 -0.057385 -0.027716
v 0.414572 -0.009678 0.000000
v -0.049884 -0.013277 -0.193118
v -0.149245 -0.015486 -0.192402
v -0.050831 0.003703 -0.166613
v 0.044439 0.005820 -0.166613
v 0.044248 -0.011185 -0.193118
v 0.143828 -0.008972 -0.192402
v 0.145221 0.008060 -0.166203
v 0.157816 -0.638344 -0.192402
v 0.159964 -0.655297 -0.166204
v -0.368005 -0.204350 -0.170371
v 0.331844 0.012208 -0.165794
v 0.328224 -0.004874 -0.191686
v -0.151394 0.001468 -0.166203
v -0.333453 -0.019580 -0.191686
v -0.399423 -0.646225 -0.028210
v -0.400621 -0.644031 -0.000000
v 0.413796 -0.007475 -0.028210
v 0.414572 -0.009678 0.000000
v -0.311830 -0.464779 -0.195123
v -0.366571 -0.636775 -0.172240
v -0.319465 -0.648951 -0.191686
v -0.323087 -0.666033 -0.165794
v -0.388224 -0.650479 -0.155971
v -0.135257 -0.644857 -0.192402
v -0.136651 -0.661890 -0.166204
v 0.342212 -0.634245 -0.191686
v 0.346587 -0.651150 -0.165794
v 0.427583 -0.627845 -0.028210
v 0.345505 -0.646427 -0.031173
v 0.379704 -0.016953 -0.172240
v 0.401825 -0.003238 -0.155971
v -0.413211 -0.025856 -0.028210
v -0.335914 -0.007379 -0.031172
v 0.393104 -0.619891 -0.172240
v 0.415812 -0.632610 -0.155971
v -0.414310 -0.028100 0.000000
v -0.413211 -0.025856 -0.028210
v -0.379971 -0.033837 -0.172240
v -0.337830 -0.002676 -0.165794
v -0.402212 -0.021108 -0.155971
v -0.366571 -0.636775 -0.172240
v -0.401835 -0.599777 -0.154334
v -0.370408 -0.599079 -0.174905
v -0.362192 -0.465899 -0.170371
v -0.392702 -0.466577 -0.150333
v -0.388224 -0.650479 -0.155971
v 0.415812 -0.632610 -0.155971
v 0.441767 -0.577255 -0.027716
v 0.442889 -0.575369 -0.000000
v 0.428261 -0.625609 -0.000000
v 0.427583 -0.627845 -0.028210
v 0.039244 -0.430506 0.196754
v 0.049711 -0.371623 0.196795
v 0.037613 -0.357110 0.196754
v -0.026187 -0.431960 0.196754
v -0.027818 -0.358564 0.196754
v -0.039277 -0.373600 0.196795
v 0.051487 -0.451550 0.196795
v 0.426319 -0.446503 0.026509
v 0.441767 -0.577255 0.027716
v 0.427583 -0.627845 0.028210
v -0.426808 -0.076433 0.027716
v -0.413211 -0.025856 0.028210
v -0.399423 -0.646225 0.028210
v -0.035462 -0.654894 0.031419
v 0.422499 -0.274631 0.026509
v 0.420589 -0.188694 0.026509
v 0.430213 -0.057385 0.027716
v 0.413796 -0.007475 -0.028210
v -0.409498 -0.293122 0.026509
v -0.411408 -0.207186 0.026509
v -0.049958 -0.003364 0.000000
v -0.413211 -0.025856 0.028210
v -0.335914 -0.007379 0.031173
v -0.414310 -0.028100 0.000000
v -0.150254 -0.003253 0.031296
v 0.145127 0.003312 0.031296
v 0.330972 0.007442 0.031173
v 0.413796 -0.007475 0.028210
v -0.135721 -0.657122 0.031296
v -0.321382 -0.661249 0.031172
v -0.399423 -0.646225 -0.028210
v -0.415254 -0.596302 0.027716
v -0.407588 -0.379058 0.026509
v -0.405678 -0.464994 0.026509
v 0.059412 -0.652786 0.031419
v 0.428261 -0.625609 -0.000000
v 0.159660 -0.650558 0.031296
v 0.427583 -0.627845 0.028210
v 0.345505 -0.646427 0.031172
v -0.049994 -0.001025 0.031419
v 0.044880 0.001084 0.031419
v 0.424409 -0.360567 0.026509
v -0.037500 -0.453528 0.196795
v -0.108505 -0.360357 0.196145
v -0.133195 -0.375688 0.196063
v -0.041308 -0.282210 0.196795
v -0.135226 -0.284298 0.196063
v -0.109879 -0.298516 0.196145
v -0.030824 -0.223326 0.196754
v -0.043084 -0.202283 0.196795
v 0.117104 -0.293471 0.196145
v 0.047680 -0.280233 0.196795
v 0.036238 -0.295269 0.196754
v 0.118479 -0.355312 0.196145
v 0.143859 -0.369530 0.196063
v -0.029193 -0.296723 0.196754
v 0.141828 -0.278140 0.196063
v 0.045903 -0.200305 0.196795
v 0.034607 -0.221872 0.196754
v -0.280106 -0.450945 0.195397
v -0.313767 -0.377596 0.195123
v -0.311830 -0.464780 0.195123
v -0.035897 -0.642649 0.193119
v -0.135257 -0.644857 0.192402
v -0.036088 -0.659654 0.166613
v 0.059182 -0.657537 0.166613
v 0.058236 -0.640557 0.193119
v -0.285336 -0.215641 0.195397
v -0.315705 -0.290413 0.195123
v -0.283593 -0.294076 0.195397
v -0.296676 -0.096241 0.200070
v -0.131991 -0.092581 0.200806
v -0.147194 -0.066444 0.201135
v -0.317642 -0.203230 0.195123
v -0.043159 -0.090607 0.201543
v -0.048456 -0.064250 0.201954
v 0.040998 -0.088737 0.201543
v 0.045088 -0.062171 0.201954
v 0.408786 -0.274312 0.150333
v 0.406848 -0.187128 0.150333
v 0.377695 -0.275003 0.170371
v 0.294882 -0.083094 0.200070
v 0.288949 -0.202878 0.195397
v 0.320696 -0.189043 0.195123
v 0.144047 -0.059972 0.201135
v 0.130025 -0.086758 0.200806
v 0.294178 -0.438182 0.195397
v 0.324571 -0.363409 0.195123
v 0.292435 -0.359747 0.195397
v -0.286130 -0.570731 0.200070
v -0.135472 -0.593858 0.201135
v -0.121445 -0.567071 0.200806
v -0.036734 -0.591663 0.201954
v -0.032614 -0.565097 0.201543
v -0.396577 -0.292211 0.150333
v -0.364130 -0.378716 0.170371
v -0.366068 -0.291533 0.170371
v -0.399423 -0.646225 0.028210
v 0.290692 -0.281313 0.195397
v 0.322634 -0.276226 0.195123
v 0.416030 -0.053927 0.154334
v 0.384004 -0.054639 0.174905
v 0.427752 -0.581340 0.154334
v 0.393104 -0.619891 0.172240
v 0.415812 -0.632610 0.155971
v 0.401825 -0.003238 0.155971
v 0.379704 -0.016953 0.172240
v 0.410724 -0.361495 0.150333
v 0.379633 -0.362186 0.170371
v 0.412661 -0.448678 0.150333
v 0.381570 -0.449369 0.170371
v 0.395726 -0.582052 0.174905
v 0.375757 -0.187819 0.170371
v 0.056810 -0.589584 0.201954
v 0.051544 -0.563226 0.201543
v -0.281850 -0.372511 0.195397
v -0.394640 -0.379394 0.150333
v -0.362192 -0.465899 0.170371
v -0.402212 -0.021108 0.155971
v -0.413557 -0.072364 0.154334
v -0.379971 -0.033837 0.172240
v -0.398515 -0.205028 0.150333
v -0.368005 -0.204350 0.170371
v -0.382129 -0.071666 0.174905
v 0.305428 -0.557584 0.200070
v 0.326509 -0.450592 0.195123
v 0.327291 -0.055899 0.200317
v 0.155768 -0.587385 0.201135
v 0.140571 -0.561248 0.200806
v -0.330247 -0.070513 0.200317
v 0.413796 -0.007475 0.028210
v -0.049884 -0.013277 0.193119
v 0.044439 0.005820 0.166613
v -0.050831 0.003703 0.166613
v 0.044248 -0.011185 0.193119
v 0.143828 -0.008972 0.192402
v 0.145221 0.008060 0.166204
v 0.157816 -0.638344 0.192402
v 0.159964 -0.655297 0.166203
v 0.328224 -0.004874 0.191686
v 0.331844 0.012208 0.165794
v -0.149245 -0.015486 0.192402
v -0.151394 0.001468 0.166204
v -0.318525 -0.597926 0.200317
v -0.366571 -0.636775 0.172240
v -0.323087 -0.666033 0.165794
v -0.319465 -0.648951 0.191686
v -0.388224 -0.650479 0.155971
v 0.339013 -0.583312 0.200317
v -0.136651 -0.661890 0.166203
v 0.342212 -0.634245 0.191686
v 0.346587 -0.651150 0.165794
v 0.379704 -0.016953 0.172240
v 0.401825 -0.003238 0.155971
v 0.393104 -0.619891 0.172240
v 0.415812 -0.632610 0.155971
v -0.333453 -0.019580 0.191686
v -0.337830 -0.002676 0.165794
v -0.379971 -0.033837 0.172240
v -0.402212 -0.021108 0.155971
v -0.366571 -0.636775 0.172240
v -0.401835 -0.599777 0.154334
v -0.388224 -0.650479 0.155971
v -0.392702 -0.466577 0.150333
v -0.370408 -0.599079 0.174905
v -0.110569 -0.731960 0.031620
v 0.145471 -0.727367 -0.031791
v 0.145447 -0.726270 0.031620
v -0.110545 -0.733057 -0.031791
v -0.110922 -0.716079 -0.033034
v 0.145094 -0.710389 -0.033034
v -0.110545 -0.733057 -0.031791
v 0.145094 -0.710389 -0.033034
v -0.110922 -0.716079 0.033034
v 0.145094 -0.710389 0.033034
v -0.110922 -0.716079 -0.033034
v 0.145471 -0.727367 -0.031791
v -0.110569 -0.731960 0.031620
v 0.145447 -0.726270 0.031620
v -0.110922 -0.716079 0.033034
v 0.145094 -0.710389 0.033034
v -0.039277 -0.373600 -0.196795
v -0.122807 -0.449860 -0.196063
v -0.133195 -0.375688 -0.196063
v -0.041308 -0.282210 -0.196795
v -0.128144 -0.209737 -0.196063
v -0.043084 -0.202283 -0.196795
v -0.037500 -0.453528 -0.196795
v -0.121445 -0.567071 -0.200806
v 0.040998 -0.088737 -0.201543
v 0.045903 -0.200305 -0.196795
v -0.131991 -0.092581 -0.200806
v -0.043159 -0.090607 -0.201543
v 0.141828 -0.278140 -0.196063
v 0.288949 -0.202878 -0.195397
v 0.290692 -0.281312 -0.195397
v -0.135226 -0.284298 -0.196063
v -0.281850 -0.372511 -0.195397
v -0.283593 -0.294076 -0.195397
v -0.285336 -0.215641 -0.195397
v 0.047680 -0.280233 -0.196795
v 0.131431 -0.203968 -0.196063
v -0.280106 -0.450945 -0.195397
v 0.130025 -0.086758 -0.200806
v 0.136767 -0.444091 -0.196063
v 0.051487 -0.451550 -0.196795
v 0.049711 -0.371622 -0.196795
v 0.143859 -0.369530 -0.196063
v -0.286130 -0.570731 -0.200070
v -0.296676 -0.096241 -0.200070
v 0.292435 -0.359747 -0.195397
v 0.294178 -0.438182 -0.195397
v 0.140571 -0.561248 -0.200806
v -0.032614 -0.565097 -0.201543
v 0.294882 -0.083094 -0.200070
v 0.051544 -0.563226 -0.201543
v 0.305428 -0.557584 -0.200070
v -0.041308 -0.282210 0.196795
v -0.128144 -0.209737 0.196063
v -0.135226 -0.284298 0.196063
v 0.051487 -0.451550 0.196795
v 0.140571 -0.561248 0.200806
v 0.136767 -0.444091 0.196063
v 0.049711 -0.371623 0.196795
v 0.143859 -0.369530 0.196063
v -0.043084 -0.202283 0.196795
v -0.043159 -0.090607 0.201543
v -0.131991 -0.092581 0.200806
v 0.040998 -0.088737 0.201543
v 0.141828 -0.278140 0.196063
v 0.292435 -0.359747 0.195397
v 0.290692 -0.281313 0.195397
v 0.288949 -0.202878 0.195397
v 0.131431 -0.203968 0.196063
v -0.285336 -0.215641 0.195397
v -0.283593 -0.294076 0.195397
v 0.047680 -0.280233 0.196795
v 0.045903 -0.200305 0.196795
v 0.130025 -0.086758 0.200806
v 0.294178 -0.438182 0.195397
v -0.122807 -0.449860 0.196063
v -0.039277 -0.373600 0.196795
v -0.133195 -0.375688 0.196063
v -0.037500 -0.453528 0.196795
v -0.280106 -0.450945 0.195397
v -0.121445 -0.567071 0.200806
v -0.281850 -0.372511 0.195397
v -0.296676 -0.096241 0.200070
v 0.294882 -0.083094 0.200070
v 0.305428 -0.557584 0.200070
v -0.032614 -0.565097 0.201543
v -0.286130 -0.570731 0.200070
v 0.051544 -0.563226 0.201543
vn -0.0015 0.0006 -1.0000
vn -0.0026 0.0010 -1.0000
vn 0.0026 0.0013 -1.0000
vn 0.0014 0.0007 -1.0000
vn -0.0026 -0.0012 -1.0000
vn -0.0063 0.0032 -1.0000
vn -0.0061 -0.0035 -1.0000
vn -0.0014 -0.0007 -1.0000
vn 0.0026 -0.0011 -1.0000
vn 0.0061 0.0035 -1.0000
vn 0.0062 -0.0032 -1.0000
vn 0.0015 -0.0006 -1.0000
vn -0.0222 0.9983 0.0547
vn -0.0223 0.9991 0.0351
vn -0.0222 0.9991 0.0351
vn -0.0001 -0.1704 -0.9854
vn -0.0041 -0.0770 -0.9970
vn -0.0025 -0.0774 -0.9970
vn 0.0077 -0.1703 -0.9854
vn 0.0076 -0.0768 -0.9970
vn 0.0094 -0.1684 -0.9857
vn 0.0059 -0.0772 -0.9970
vn 0.0221 -0.9991 0.0351
vn 0.0222 -0.9983 0.0547
vn 0.1262 -0.9906 0.0535
vn 0.0221 -0.9982 0.0549
vn -0.9947 0.0255 -0.0999
vn -0.9943 -0.0221 -0.1039
vn -0.9941 0.0259 -0.1051
vn -0.9898 -0.1155 -0.0839
vn -0.9890 -0.1121 -0.0961
vn -0.9527 -0.2967 -0.0660
vn -0.9568 -0.2782 -0.0841
vn 0.0223 -0.9991 0.0352
vn 0.0223 -0.9991 0.0351
vn 0.0222 -0.9982 0.0549
vn -0.0879 -0.9947 0.0530
vn -0.0877 -0.9957 0.0311
vn 0.0820 0.9952 0.0535
vn 0.0810 0.9962 0.0307
vn -0.0222 0.9982 0.0549
vn -0.0221 0.9982 0.0549
vn -0.0221 0.9991 0.0352
vn -0.1320 0.9898 0.0530
vn 0.9518 0.3022 -0.0521
vn 0.9878 0.1175 -0.1018
vn 0.9534 0.2883 -0.0893
vn 0.9937 0.0221 -0.1100
vn 0.9966 -0.0259 -0.0779
vn 0.9968 0.0222 -0.0762
vn 0.9945 0.0702 -0.0779
vn 0.9913 0.0702 -0.1111
vn -0.9949 -0.0221 -0.0989
vn -0.9949 -0.0221 -0.0988
vn 0.2138 0.0048 -0.9769
vn 0.4759 -0.0244 -0.8791
vn 0.4770 0.0106 -0.8788
vn 0.2138 0.0047 -0.9769
vn -0.9920 -0.0700 -0.1051
vn -0.9939 0.0714 -0.0839
vn -0.9930 0.0681 -0.0961
vn -0.9925 -0.0696 -0.1000
vn 0.2090 0.0543 -0.9764
vn 0.4752 0.0336 -0.8792
vn 0.2155 -0.0247 -0.9762
vn 0.0041 0.0770 -0.9970
vn 0.0001 0.1704 -0.9854
vn 0.0019 0.1686 -0.9857
vn -0.0076 0.0768 -0.9970
vn -0.0077 0.1703 -0.9854
vn -0.0059 0.0772 -0.9970
vn -0.0094 0.1684 -0.9857
vn -0.2274 0.0434 -0.9728
vn -0.2143 0.1429 -0.9663
vn 0.9907 0.1192 -0.0654
vn 0.9935 -0.0261 -0.1111
vn 0.0025 0.0773 -0.9970
vn -0.2305 -0.0051 -0.9730
vn -0.4934 -0.0465 -0.8686
vn -0.2306 -0.0352 -0.9724
vn -0.4958 -0.0110 -0.8684
vn -0.4944 0.0094 -0.8692
vn -0.2065 -0.9781 0.0262
vn -0.1941 -0.9796 0.0528
vn -0.4911 0.1010 -0.8652
vn 0.1928 0.9809 0.0255
vn 0.1817 0.9819 0.0539
vn -0.4949 0.0245 -0.8686
vn 0.1931 0.1530 -0.9692
vn 0.4671 0.1267 -0.8751
vn 0.2112 -0.0450 -0.9764
vn 0.1997 -0.1443 -0.9692
vn -0.2078 -0.1523 -0.9663
vn -0.4861 -0.1227 -0.8652
vn -0.2253 -0.0535 -0.9728
vn -0.0019 -0.1686 -0.9857
vn -0.2319 0.0250 -0.9724
vn 0.1252 -0.9917 0.0307
vn 0.2362 -0.9714 0.0255
vn 0.2251 -0.9728 0.0539
vn -0.2498 0.9679 0.0262
vn -0.1319 0.9908 0.0311
vn -0.2374 0.9700 0.0528
vn -0.9649 0.2540 -0.0660
vn -0.9682 0.2354 -0.0841
vn 0.4744 0.0455 -0.8791
vn 0.2142 0.0343 -0.9762
vn -0.4935 -0.0314 -0.8692
vn 0.9643 -0.2597 -0.0521
vn 0.9921 -0.0735 -0.1018
vn 0.9950 -0.0750 -0.0654
vn 0.4762 -0.0125 -0.8792
vn 0.4722 -0.1058 -0.8751
vn 0.9652 -0.2457 -0.0893
vn -0.0015 0.0006 1.0000
vn 0.0026 0.0013 1.0000
vn -0.0026 0.0010 1.0000
vn 0.0014 0.0007 1.0000
vn -0.0026 -0.0012 1.0000
vn 0.0026 -0.0011 1.0000
vn -0.0014 -0.0007 1.0000
vn 0.0015 -0.0006 1.0000
vn 0.0061 0.0035 1.0000
vn -0.0063 0.0032 1.0000
vn -0.0061 -0.0035 1.0000
vn 0.0062 -0.0032 1.0000
vn -0.0222 0.9983 -0.0547
vn -0.0223 0.9991 -0.0351
vn -0.0222 0.9982 -0.0549
vn -0.0222 0.9991 -0.0351
vn -0.0221 0.9982 -0.0549
vn -0.0001 -0.1704 0.9854
vn -0.0041 -0.0770 0.9970
vn -0.0019 -0.1686 0.9857
vn 0.0077 -0.1703 0.9854
vn 0.0076 -0.0768 0.9970
vn 0.0059 -0.0772 0.9970
vn -0.0025 -0.0774 0.9970
vn 0.0221 -0.9991 -0.0351
vn 0.1262 -0.9906 -0.0535
vn 0.1252 -0.9917 -0.0307
vn 0.0222 -0.9983 -0.0547
vn 0.0221 -0.9982 -0.0549
vn -0.9947 0.0255 0.0999
vn -0.9943 -0.0221 0.1039
vn -0.9949 -0.0221 0.0989
vn -0.9898 -0.1155 0.0839
vn -0.9941 0.0259 0.1051
vn -0.9890 -0.1121 0.0961
vn -0.9527 -0.2967 0.0660
vn -0.9568 -0.2782 0.0841
vn 0.0222 -0.9982 -0.0549
vn 0.0223 -0.9991 -0.0351
vn 0.0223 -0.9991 -0.0352
vn -0.0879 -0.9947 -0.0530
vn 0.0821 0.9952 -0.0534
vn -0.0221 0.9991 -0.0352
vn -0.1320 0.9898 -0.0530
vn -0.1319 0.9908 -0.0311
vn 0.9518 0.3022 0.0521
vn 0.9878 0.1175 0.1018
vn 0.9907 0.1192 0.0654
vn 0.9937 0.0221 0.1100
vn 0.9966 -0.0259 0.0779
vn 0.9935 -0.0261 0.1111
vn 0.9968 0.0222 0.0762
vn 0.9945 0.0702 0.0779
vn 0.2138 0.0048 0.9769
vn 0.4759 -0.0244 0.8791
vn 0.2155 -0.0247 0.9762
vn -0.9920 -0.0700 0.1051
vn -0.9939 0.0714 0.0839
vn -0.9926 -0.0696 0.0999
vn 0.4770 0.0106 0.8788
vn 0.2090 0.0543 0.9764
vn 0.0041 0.0770 0.9970
vn -0.0000 0.1701 0.9854
vn 0.0025 0.0774 0.9970
vn 0.0019 0.1686 0.9857
vn 0.1931 0.1530 0.9692
vn -0.0076 0.0768 0.9970
vn -0.0076 0.1700 0.9854
vn -0.0094 0.1684 0.9857
vn -0.2274 0.0434 0.9728
vn 0.9534 0.2883 0.0893
vn -0.0059 0.0772 0.9970
vn -0.2306 -0.0352 0.9724
vn -0.4934 -0.0465 0.8686
vn -0.4944 0.0094 0.8692
vn -0.2305 -0.0051 0.9730
vn -0.4958 -0.0110 0.8684
vn -0.0877 -0.9957 -0.0311
vn -0.2066 -0.9781 -0.0262
vn -0.1941 -0.9796 -0.0528
vn -0.4911 0.1010 0.8652
vn -0.2143 0.1429 0.9663
vn 0.1928 0.9809 -0.0255
vn 0.1816 0.9819 -0.0539
vn 0.0810 0.9962 -0.0307
vn 0.4671 0.1267 0.8751
vn 0.4752 0.0337 0.8792
vn 0.0094 -0.1684 0.9857
vn 0.2112 -0.0450 0.9764
vn -0.2078 -0.1523 0.9663
vn -0.2253 -0.0535 0.9728
vn -0.4861 -0.1227 0.8652
vn -0.4949 0.0245 0.8686
vn -0.4935 -0.0314 0.8692
vn 0.2362 -0.9714 -0.0255
vn 0.2251 -0.9728 -0.0539
vn -0.2498 0.9679 -0.0262
vn -0.2374 0.9700 -0.0528
vn -0.9930 0.0681 0.0961
vn -0.9649 0.2540 0.0660
vn -0.9682 0.2354 0.0841
vn 0.4744 0.0455 0.8791
vn 0.2142 0.0343 0.9762
vn 0.4762 -0.0125 0.8792
vn 0.9643 -0.2597 0.0521
vn 0.9921 -0.0735 0.1018
vn 0.9652 -0.2457 0.0893
vn -0.2319 0.0250 0.9724
vn 0.1997 -0.1443 0.9692
vn 0.4722 -0.1058 0.8751
vn 0.9913 0.0702 0.1111
vn 0.9950 -0.0750 0.0654
vn -0.9659 -0.2584 0.0172
vn -0.9659 -0.2583 0.0172
vn -0.9901 -0.1396 0.0166
vn 0.9996 0.0222 0.0156
vn 0.9954 -0.0948 0.0166
vn 0.9953 -0.0957 0.0164
vn 0.1018 -0.9946 0.0189
vn 0.2692 -0.9629 0.0201
vn 0.0997 -0.9948 0.0189
vn -0.0272 -0.9995 0.0172
vn 0.2694 -0.9628 0.0200
vn 0.0718 -0.9973 0.0172
vn -0.0552 -0.9983 0.0189
vn -0.0575 -0.9982 0.0189
vn 0.0158 -0.0886 0.9959
vn 0.0312 -0.0944 0.9950
vn 0.0357 -0.0938 0.9950
vn -0.0350 -0.0855 0.9957
vn 0.9764 -0.2152 0.0172
vn -0.0318 -0.0852 0.9959
vn -0.1006 -0.0536 0.9935
vn -0.0118 -0.0892 0.9959
vn 0.0387 -0.0838 0.9957
vn -0.0313 -0.0952 0.9950
vn -0.0268 -0.0956 0.9951
vn 0.0356 -0.0837 0.9959
vn 0.1028 -0.0491 0.9935
vn 0.1160 -0.0353 0.9926
vn 0.0298 -0.0790 -0.9964
vn 0.0353 -0.0792 -0.9962
vn 0.0289 -0.0788 -0.9965
vn 0.0792 -0.0460 -0.9958
vn 0.0269 -0.0744 -0.9969
vn 0.0910 -0.0332 -0.9953
vn 0.1243 0.0028 -0.9922
vn -0.9902 -0.1390 0.0165
vn -0.9996 -0.0222 0.0156
vn -0.1894 0.9819 -0.0000
vn -0.0989 0.9951 -0.0000
vn 0.9998 0.0222 -0.0000
vn 0.9813 0.1927 -0.0000
vn -0.0121 0.9999 -0.0000
vn 0.9304 0.3665 -0.0000
vn 0.1456 0.9893 -0.0000
vn 0.0545 0.9985 -0.0000
vn -0.0324 0.9995 -0.0000
vn -0.9888 0.1489 -0.0000
vn -0.9998 -0.0222 -0.0000
vn -0.9458 0.3248 -0.0000
vn -0.1143 -0.0405 0.9926
vn -0.1529 -0.0034 0.9882
vn 0.0247 -0.0738 -0.9970
vn -0.0135 -0.0752 -0.9971
vn 0.1528 0.0034 0.9882
vn -0.0895 -0.0372 -0.9953
vn -0.1243 -0.0028 -0.9922
vn -0.0771 -0.0494 -0.9958
vn -0.0236 -0.0755 -0.9969
vn -0.0214 -0.0749 -0.9970
vn -0.0261 -0.0801 -0.9964
vn -0.0252 -0.0799 -0.9965
vn -0.0315 -0.0806 -0.9962
vn 0.0169 -0.0746 -0.9971
vn 0.0717 -0.9973 0.0172
vn -0.2261 -0.9739 0.0201
vn -0.2264 -0.9738 0.0200
vn 0.0302 -0.0942 0.9951
vn -0.0258 -0.0954 0.9951
vn -0.0014 0.0006 -1.0000
vn 0.0033 0.0029 -1.0000
vn 0.0031 0.0217 -0.9998
vn -0.0040 0.0215 -0.9998
vn -0.0034 -0.0029 -1.0000
vn -0.0026 0.0011 -1.0000
vn -0.0035 0.0027 -1.0000
vn 0.0026 0.0012 -1.0000
vn 0.0061 0.0036 -1.0000
vn -0.0062 0.0033 -1.0000
vn 0.0014 -0.0006 -1.0000
vn 0.0062 -0.0033 -1.0000
vn 0.0054 0.0006 -1.0000
vn 0.0034 -0.0027 -1.0000
vn 0.0054 -0.0004 -1.0000
vn -0.0031 -0.0217 -0.9998
vn 0.0040 -0.0215 -0.9998
vn -0.0054 0.0004 -1.0000
vn -0.0054 -0.0006 -1.0000
vn -0.0097 0.0173 -0.9998
vn -0.2304 -0.0051 -0.9731
vn -0.0065 -0.0002 -1.0000
vn 0.0172 -0.8409 -0.5409
vn 0.0202 -0.8408 -0.5410
vn 0.0171 -0.8409 -0.5410
vn -0.0089 -0.0177 -0.9998
vn -0.2305 -0.0353 -0.9724
vn -0.0222 0.9998 -0.0000
vn -0.0223 0.9998 -0.0000
vn -0.0114 -0.0307 -0.9995
vn -0.0056 -0.0286 -0.9996
vn -0.0076 0.0767 -0.9970
vn -0.0059 0.0771 -0.9970
vn -0.0029 -0.0291 -0.9996
vn 0.0042 -0.0290 -0.9996
vn 0.1170 -0.9931 -0.0000
vn 0.0222 -0.9998 -0.0000
vn 0.5415 0.0120 -0.8406
vn 0.0127 -0.0301 -0.9995
vn -0.9898 -0.1156 -0.0839
vn -0.9930 -0.1182 -0.0000
vn 0.0069 -0.0283 -0.9996
vn 0.0089 0.0177 -0.9998
vn 0.2137 0.0048 -0.9769
vn 0.2141 0.0343 -0.9762
vn -0.0127 0.0302 -0.9995
vn -0.2252 -0.0535 -0.9728
vn -0.0069 0.0283 -0.9996
vn -0.0025 -0.0773 -0.9970
vn -0.5487 -0.0122 -0.8359
vn -0.5474 -0.0501 -0.8354
vn -0.9483 -0.3173 -0.0000
vn 0.0097 -0.0173 -0.9998
vn 0.2154 -0.0247 -0.9762
vn 0.0065 0.0002 -1.0000
vn 0.0065 0.0001 -1.0000
vn 0.0223 -0.9998 -0.0000
vn -0.0788 -0.9969 -0.0000
vn 0.0728 0.9973 -0.0000
vn -0.1228 0.9924 -0.0000
vn 0.5418 -0.0258 -0.8401
vn 0.4752 0.0337 -0.8792
vn 0.5409 0.0245 -0.8407
vn 0.4760 -0.0244 -0.8791
vn 0.5413 -0.0004 -0.8409
vn 0.4723 -0.1058 -0.8751
vn 0.4763 -0.0125 -0.8792
vn 0.5359 0.1219 -0.8354
vn 0.5399 0.0499 -0.8403
vn 0.9976 0.0694 -0.0000
vn 0.9997 -0.0250 -0.0000
vn -0.9997 0.0253 -0.0000
vn -0.0042 0.0290 -0.9996
vn 0.0059 -0.0771 -0.9970
vn -0.0065 -0.0001 -1.0000
vn -0.9926 -0.0696 -0.0999
vn -0.9973 0.0739 -0.0000
vn -0.9939 0.0715 -0.0839
vn -0.9976 -0.0697 -0.0000
vn -0.5491 -0.0020 -0.8358
vn -0.5493 0.0929 -0.8305
vn 0.0114 0.0307 -0.9995
vn 0.0029 0.0291 -0.9996
vn 0.0056 0.0286 -0.9996
vn 0.0076 -0.0767 -0.9970
vn 0.9933 0.1153 -0.0000
vn 0.9907 0.1192 -0.0653
vn 0.9484 0.3171 -0.0000
vn -0.0202 0.8408 -0.5410
vn -0.0210 0.8386 -0.5443
vn -0.0171 0.8409 -0.5409
vn -0.0172 0.8409 -0.5410
vn -0.0163 0.8390 -0.5439
vn -0.0165 0.8385 -0.5446
vn 0.0210 -0.8389 -0.5439
vn 0.0207 -0.8384 -0.5446
vn 0.1644 0.7595 -0.6294
vn 0.1284 0.7780 -0.6150
vn -0.0207 0.8384 -0.5446
vn -0.1729 0.7678 -0.6170
vn -0.1941 -0.9796 0.0529
vn -0.1836 -0.9830 -0.0000
vn 0.1816 0.9819 0.0539
vn 0.1723 0.9850 -0.0000
vn -0.3380 -0.6519 -0.6788
vn -0.1386 -0.7747 -0.6170
vn -0.1780 -0.7544 -0.6318
vn -0.3381 -0.6519 -0.6788
vn 0.0162 -0.8387 -0.5444
vn 0.0165 -0.8385 -0.5446
vn 0.1628 -0.7715 -0.6150
vn 0.1980 -0.7514 -0.6294
vn 0.3140 0.6651 -0.6776
vn -0.2374 0.9700 0.0529
vn 0.3432 -0.6505 -0.6776
vn -0.9615 0.2748 -0.0000
vn -0.9649 0.2540 -0.0659
vn -0.3667 0.6363 -0.6788
vn -0.2113 0.7457 -0.6318
vn -0.5487 -0.0225 -0.8357
vn -0.4950 0.0245 -0.8686
vn -0.5491 0.0258 -0.8354
vn -0.5446 -0.1171 -0.8305
vn 0.5408 -0.0980 -0.8354
vn 0.9950 -0.0751 -0.0653
vn 0.9975 -0.0711 -0.0000
vn 0.9615 -0.2747 -0.0000
vn -0.0017 0.0007 1.0000
vn 0.0033 0.0029 1.0000
vn 0.0026 0.0012 1.0000
vn -0.0026 0.0011 1.0000
vn -0.0035 0.0027 1.0000
vn 0.0031 0.0217 0.9998
vn 0.9950 -0.0751 0.0653
vn -0.9939 0.0715 0.0839
vn -0.9649 0.2540 0.0659
vn -0.1941 -0.9796 -0.0529
vn 0.9907 0.1192 0.0653
vn 0.9518 0.3023 -0.0521
vn -0.9949 -0.0221 0.0988
vn -0.2374 0.9700 -0.0529
vn -0.2271 0.9739 -0.0000
vn 0.0820 0.9952 -0.0535
vn -0.9527 -0.2967 -0.0659
vn -0.9898 -0.1156 0.0839
vn 0.2159 -0.9764 -0.0000
vn -0.0040 0.0215 0.9998
vn -0.0062 0.0033 1.0000
vn -0.0054 0.0004 1.0000
vn -0.0034 -0.0029 1.0000
vn -0.0054 -0.0006 1.0000
vn 0.0014 -0.0006 1.0000
vn -0.0031 -0.0217 0.9998
vn 0.0062 -0.0033 1.0000
vn 0.0034 -0.0027 1.0000
vn 0.0061 0.0036 1.0000
vn 0.0054 0.0006 1.0000
vn 0.0054 -0.0004 1.0000
vn 0.0040 -0.0215 0.9998
vn -0.0097 0.0173 0.9998
vn -0.2304 -0.0051 0.9731
vn 0.0172 -0.8409 0.5410
vn 0.0163 -0.8390 0.5439
vn 0.0171 -0.8410 0.5408
vn 0.0203 -0.8408 0.5409
vn 0.0202 -0.8408 0.5409
vn -0.0089 -0.0177 0.9998
vn -0.0065 -0.0001 1.0000
vn -0.0114 -0.0307 0.9995
vn -0.0056 -0.0286 0.9996
vn -0.0076 0.0767 0.9970
vn -0.2305 -0.0352 0.9724
vn -0.0029 -0.0291 0.9996
vn -0.0059 0.0771 0.9970
vn 0.0042 -0.0290 0.9996
vn 0.0025 0.0773 0.9970
vn 0.5415 0.0120 0.8406
vn 0.5418 -0.0258 0.8401
vn 0.0127 -0.0301 0.9995
vn 0.0097 -0.0173 0.9998
vn 0.2154 -0.0247 0.9762
vn 0.0069 -0.0283 0.9996
vn 0.0089 0.0177 0.9998
vn 0.2137 0.0047 0.9769
vn 0.0065 0.0001 1.0000
vn -0.0127 0.0302 0.9995
vn -0.0069 0.0283 0.9996
vn -0.0025 -0.0773 0.9970
vn -0.0042 0.0290 0.9996
vn -0.5487 -0.0122 0.8359
vn -0.9527 -0.2967 0.0659
vn 0.0065 0.0002 1.0000
vn 0.5410 0.0246 0.8407
vn 0.4752 0.0336 0.8792
vn 0.5414 -0.0004 0.8408
vn 0.4723 -0.1058 0.8751
vn 0.5408 -0.0980 0.8354
vn 0.5359 0.1220 0.8354
vn 0.5402 0.0498 0.8401
vn 0.4763 -0.0125 0.8792
vn 0.4760 -0.0244 0.8791
vn 0.0059 -0.0771 0.9970
vn 0.0029 0.0291 0.9996
vn -0.0065 -0.0002 1.0000
vn -0.4950 0.0245 0.8686
vn -0.5493 0.0929 0.8305
vn -0.5491 -0.0019 0.8357
vn -0.5474 -0.0501 0.8354
vn 0.0114 0.0307 0.9995
vn 0.2141 0.0342 0.9762
vn 0.0076 -0.0767 0.9970
vn 0.0056 0.0286 0.9996
vn 0.9518 0.3023 0.0521
vn -0.0202 0.8408 0.5410
vn -0.0171 0.8409 0.5410
vn -0.0203 0.8409 0.5408
vn -0.0172 0.8409 0.5410
vn -0.0163 0.8390 0.5439
vn -0.0165 0.8385 0.5446
vn 0.0210 -0.8389 0.5439
vn 0.0207 -0.8384 0.5446
vn 0.1284 0.7780 0.6150
vn 0.1644 0.7595 0.6294
vn -0.0210 0.8386 0.5443
vn -0.0207 0.8384 0.5446
vn -0.2253 -0.0534 0.9728
vn -0.3380 -0.6519 0.6788
vn -0.1780 -0.7544 0.6318
vn -0.1386 -0.7747 0.6170
vn 0.0165 -0.8385 0.5446
vn 0.1628 -0.7715 0.6150
vn 0.1980 -0.7514 0.6294
vn 0.3140 0.6651 0.6776
vn 0.3432 -0.6505 0.6776
vn -0.1729 0.7678 0.6170
vn -0.2113 0.7457 0.6318
vn -0.3667 0.6363 0.6788
vn -0.5487 -0.0225 0.8357
vn -0.5446 -0.1172 0.8305
vn -0.5491 0.0258 0.8354
vn -0.0272 -0.9995 0.0173
vn 0.0718 -0.9973 0.0173
vn 0.0311 -0.0944 0.9951
vn -0.0267 -0.0956 0.9951
vn -0.0063 0.0196 -0.9998
vn -0.0033 -0.0029 -1.0000
vn -0.0055 -0.0199 -0.9998
vn -0.0054 -0.0007 -1.0000
vn -0.0064 -0.0002 -1.0000
vn -0.0064 -0.0001 -1.0000
vn 0.0065 -0.0197 -0.9998
vn 0.0056 0.0199 -0.9998
vn 0.0127 -0.0302 -0.9995
vn -0.0033 -0.0029 1.0000
vn -0.0055 -0.0199 0.9998
vn -0.0054 -0.0007 1.0000
vn 0.0056 0.0199 0.9998
vn 0.0065 -0.0197 0.9998
vn -0.0064 -0.0001 1.0000
vn -0.0063 0.0196 0.9998
vn -0.0064 -0.0002 1.0000
vn 0.0127 -0.0302 0.9995
s 1
usemtl Green
f 1//1 2//2 3//3
f 4//4 2//2 1//1
f 5//5 6//6 7//7
f 5//5 8//8 9//9
f 2//2 5//5 9//9
f 3//3 2//2 9//9
f 10//10 3//3 9//9
f 10//10 9//9 11//11
f 6//6 5//5 2//2
f 8//8 5//5 12//12
f 13//13 14//14 15//15
f 16//13 14//14 13//13
f 16//13 17//14 14//14
f 18//16 19//17 20//18
f 21//19 22//20 23//21
f 21//19 20//18 24//22
f 25//23 26//24 27//23
f 25//23 28//25 29//26
f 30//27 31//28 32//29
f 33//30 30//27 32//29
f 34//31 33//30 32//29
f 34//31 35//32 33//30
f 35//32 34//31 36//33
f 37//34 38//35 39//36
f 37//34 40//37 41//38
f 17//14 42//39 43//40
f 17//14 16//13 44//41
f 45//42 15//15 46//43
f 45//42 13//13 15//15
f 46//43 47//44 45//42
f 48//45 49//46 50//47
f 51//48 52//49 53//50
f 53//50 54//48 51//48
f 54//48 55//51 56//52
f 54//48 53//50 57//50
f 31//28 58//53 59//28
f 31//28 60//54 58//53
f 31//28 30//27 60//54
f 61//55 62//56 63//57
f 63//57 64//58 61//55
f 20//18 21//19 18//16
f 65//59 66//60 67//61
f 59//28 68//62 65//59
f 59//28 58//53 68//62
f 26//24 25//23 29//26
f 38//35 69//24 39//36
f 69//24 27//23 26//24
f 27//23 69//24 38//35
f 62//56 70//63 71//64
f 62//56 61//55 72//65
f 73//66 74//67 75//68
f 75//68 70//63 73//66
f 76//69 77//70 78//71
f 79//72 80//73 81//74
f 49//46 48//45 82//75
f 52//49 51//48 83//76
f 82//75 83//76 49//46
f 83//76 82//75 52//49
f 77//70 76//69 79//72
f 74//67 73//66 84//77
f 74//67 78//71 77//70
f 78//71 74//67 84//77
f 85//78 86//79 87//80
f 85//78 88//81 89//81
f 86//79 90//82 80//73
f 89//81 86//79 85//78
f 91//83 40//37 92//84
f 40//37 37//34 39//36
f 41//38 40//37 91//83
f 93//85 80//73 90//82
f 80//73 79//72 76//69
f 80//73 87//80 86//79
f 80//73 93//85 81//74
f 42//39 17//14 44//41
f 42//39 94//86 43//40
f 95//87 94//86 42//39
f 88//81 85//78 96//78
f 96//78 97//88 88//81
f 70//63 62//56 72//65
f 70//63 75//68 98//89
f 70//63 98//89 99//90
f 71//64 70//63 99//90
f 22//20 21//19 24//22
f 23//21 100//91 101//92
f 102//93 103//94 104//95
f 19//17 18//16 105//96
f 104//95 97//88 106//97
f 104//95 105//96 102//93
f 105//96 104//95 19//17
f 28//25 25//23 107//98
f 28//25 108//99 109//100
f 108//99 28//25 107//98
f 110//101 47//44 111//102
f 47//44 46//43 111//102
f 47//44 110//101 112//103
f 66//60 65//59 68//62
f 67//61 113//104 114//105
f 113//104 67//61 66//60
f 64//58 63//57 115//57
f 64//58 116//106 117//107
f 116//106 100//91 117//107
f 116//106 64//58 115//57
f 103//94 118//108 104//95
f 119//109 120//110 121//111
f 97//88 96//78 106//97
f 118//108 97//88 104//95
f 100//91 116//106 122//112
f 100//91 23//21 22//20
f 100//91 123//113 101//92
f 123//113 100//91 122//112
f 55//51 54//48 57//50
f 121//111 56//52 55//51
f 120//110 119//109 124//114
f 120//110 56//52 121//111
f 125//115 126//116 127//117
f 128//118 125//115 127//117
f 129//119 130//120 131//121
f 129//119 131//121 132//122
f 127//117 130//120 129//119
f 126//116 130//120 127//117
f 133//123 130//120 126//116
f 134//124 129//119 135//125
f 134//124 127//117 129//119
f 130//120 133//123 136//126
f 137//127 138//128 139//129
f 140//130 141//127 142//131
f 141//127 143//128 137//127
f 143//128 141//127 140//130
f 144//132 145//133 146//134
f 147//135 148//136 149//137
f 147//135 150//138 144//132
f 151//139 152//140 153//141
f 151//139 154//142 155//143
f 156//144 157//145 158//146
f 159//147 160//148 156//144
f 161//149 160//148 159//147
f 161//149 162//150 163//151
f 162//150 161//149 159//147
f 164//152 165//153 166//154
f 164//152 167//142 165//153
f 166//154 168//155 164//152
f 138//128 137//127 143//128
f 138//128 169//156 139//129
f 170//157 140//130 142//131
f 170//157 171//158 172//159
f 173//160 174//161 175//162
f 176//163 177//164 178//165
f 176//163 179//166 177//164
f 180//163 179//166 176//163
f 180//163 181//166 179//166
f 180//163 182//167 181//166
f 157//145 183//146 158//146
f 157//145 156//144 160//148
f 184//168 185//169 186//170
f 150//138 147//135 149//137
f 187//171 188//172 189//173
f 183//146 157//145 190//145
f 189//173 190//145 187//171
f 190//145 189//173 183//146
f 154//142 151//139 191//139
f 191//139 167//142 154//142
f 167//142 191//139 165//153
f 185//169 184//168 192//174
f 185//169 193//175 186//170
f 194//176 195//177 196//178
f 197//179 193//175 198//180
f 199//181 200//182 201//183
f 201//183 202//184 199//181
f 174//161 173//160 203//185
f 175//162 178//165 177//164
f 178//165 175//162 174//161
f 200//182 199//181 204//186
f 204//186 195//177 200//182
f 195//177 204//186 196//178
f 195//177 194//176 197//179
f 205//187 202//184 206//188
f 206//188 202//184 207//189
f 208//190 205//187 206//188
f 209//191 208//190 206//188
f 168//155 166//154 210//192
f 168//155 210//192 211//193
f 211//193 212//194 168//155
f 213//195 202//184 214//196
f 202//184 201//183 214//196
f 202//184 213//195 207//189
f 169//156 215//197 216//198
f 169//156 138//128 217//199
f 215//197 169//156 217//199
f 218//191 208//190 209//191
f 218//191 219//190 208//190
f 193//175 220//200 198//180
f 193//175 197//179 194//176
f 193//175 185//169 221//201
f 221//201 220//200 193//175
f 148//136 147//135 222//202
f 222//202 223//203 148//136
f 145//133 144//132 150//138
f 224//204 225//205 226//206
f 225//205 227//207 228//208
f 225//205 146//134 145//133
f 146//134 225//205 224//204
f 229//209 152//140 230//210
f 152//140 229//209 153//141
f 152//140 151//139 155//143
f 171//158 170//157 142//131
f 171//158 231//211 172//159
f 231//211 171//158 232//212
f 188//172 187//171 233//213
f 234//214 233//213 235//215
f 233//213 234//214 188//172
f 236//168 237//216 238//174
f 236//168 192//174 184//168
f 236//168 238//174 192//174
f 237//216 236//168 239//217
f 237//216 223//203 240//218
f 226//206 225//205 228//208
f 241//219 242//220 243//221
f 227//207 244//222 219//190
f 227//207 219//190 218//191
f 227//207 225//205 244//222
f 223//203 222//202 245//223
f 223//203 237//216 239//217
f 223//203 246//224 240//218
f 246//224 223//203 245//223
f 182//167 180//163 247//225
f 248//226 182//167 247//225
f 242//220 241//219 248//226
f 242//220 248//226 247//225
usemtl DarkGreen
f 249//227 250//228 251//229
f 252//230 253//231 254//232
f 255//233 256//234 257//235
f 255//233 257//235 258//236
f 259//237 256//234 255//233
f 260//238 261//239 262//240
f 258//236 257//235 263//236
f 264//241 265//242 266//243
f 264//241 266//243 267//244
f 253//231 252//230 268//230
f 269//245 254//232 253//231
f 254//232 269//245 270//245
f 271//246 264//241 267//244
f 267//244 272//247 271//246
f 273//248 274//249 275//250
f 275//250 276//251 273//248
f 274//249 273//248 277//252
f 274//249 278//253 279//254
f 280//255 281//256 282//257
f 283//258 284//259 285//260
f 286//261 285//260 287//261
f 285//260 286//261 283//258
f 288//262 289//263 290//263
f 288//262 251//229 250//228
f 251//229 288//262 290//263
f 291//264 292//265 293//265
f 294//266 295//267 296//267
f 292//265 291//264 297//264
f 293//265 298//268 299//268
f 295//267 294//266 300//266
f 301//269 296//267 295//267
f 301//269 302//269 296//267
f 303//270 304//271 305//271
f 304//271 306//272 305//271
f 304//271 303//270 307//270
f 308//273 309//273 310//274
f 309//273 311//274 310//274
f 312//275 309//273 308//273
f 312//275 313//275 309//273
f 306//272 304//271 314//272
f 298//268 293//265 292//265
f 272//247 267//244 315//276
f 316//277 315//276 317//277
f 315//276 316//277 272//247
f 284//259 283//258 318//278
f 318//278 319//279 284//259
f 279//254 320//280 321//280
f 278//253 274//249 277//252
f 278//253 320//280 279//254
f 322//281 323//282 324//282
f 325//283 323//282 322//281
f 325//283 326//284 327//285
f 328//286 329//287 330//288
f 319//279 328//286 330//288
f 319//279 330//288 284//259
f 281//256 280//255 331//289
f 331//289 326//284 281//256
f 326//284 325//283 322//281
f 326//284 331//289 327//285
f 261//239 260//238 332//290
f 333//291 262//240 261//239
f 262//240 333//291 334//292
f 265//242 335//293 266//243
f 276//251 275//250 336//294
f 337//295 338//296 339//297
f 340//4 339//297 341//298
f 342//5 343//7 344//299
f 345//300 340//4 346//301
f 347//302 348//303 338//296
f 346//301 349//304 345//300
f 344//299 350//305 342//5
f 341//298 346//301 340//4
f 351//306 352//307 348//303
f 351//306 353//308 354//309
f 338//296 337//295 347//302
f 339//297 340//4 337//295
f 350//305 344//299 355//310
f 350//305 356//311 357//8
f 354//309 352//307 351//306
f 349//304 346//301 358//312
f 349//304 359//313 343//7
f 359//313 344//299 343//7
f 353//308 351//306 360//9
f 360//9 357//8 353//308
f 358//312 359//313 349//304
f 356//311 350//305 355//310
f 356//311 353//308 357//8
f 352//307 338//296 348//303
f 361//314 362//315 363//316
f 364//317 365//318 366//318
f 364//317 366//318 367//319
f 368//320 369//315 370//321
f 371//13 372//322 373//13
f 373//13 374//323 375//41
f 376//324 370//321 377//73
f 378//325 376//324 379//326
f 378//325 380//327 381//328
f 381//328 382//77 383//329
f 384//26 385//330 386//331
f 387//332 388//57 389//57
f 390//333 391//66 392//63
f 393//27 394//334 395//335
f 396//336 382//77 391//66
f 397//337 398//338 399//339
f 400//340 401//17 402//341
f 403//342 404//343 401//17
f 405//344 406//345 407//81
f 394//334 408//346 395//335
f 409//347 390//333 410//348
f 411//349 409//347 412//338
f 411//349 398//338 413//350
f 414//36 415//24 416//351
f 414//36 417//352 418//37
f 375//41 419//353 420//39
f 421//42 422//354 423//322
f 424//355 425//356 426//357
f 424//355 389//57 427//358
f 428//359 429//360 430//361
f 431//362 426//357 432//90
f 433//363 430//361 434//106
f 435//332 434//106 388//57
f 436//50 437//364 438//51
f 436//50 439//266 440//266
f 441//50 442//365 439//266
f 443//53 444//366 445//274
f 443//53 446//274 447//54
f 389//57 424//355 387//332
f 404//343 403//342 448//367
f 448//367 449//368 404//343
f 363//316 369//315 450//369
f 451//344 405//344 452//81
f 453//370 454//371 455//372
f 447//54 456//373 453//370
f 457//374 458//375 459//85
f 406//345 457//374 460//82
f 461//376 399//339 462//91
f 463//24 386//331 464//331
f 463//24 384//26 386//331
f 415//24 464//331 465//331
f 415//24 463//24 464//331
f 410//348 412//338 409//347
f 427//358 425//356 424//355
f 449//368 448//367 466//377
f 467//378 461//376 468//379
f 466//377 467//378 449//368
f 391//66 390//333 396//336
f 379//326 376//324 377//73
f 469//49 470//380 442//365
f 471//381 472//382 470//380
f 382//77 381//328 380//327
f 382//77 396//336 383//329
f 380//327 378//325 379//326
f 473//383 474//384 475//383
f 473//383 476//385 477//386
f 476//385 478//387 477//386
f 476//385 479//388 478//387
f 476//385 473//383 475//383
f 366//318 480//389 481//390
f 370//321 376//324 368//320
f 369//315 368//320 450//369
f 407//81 406//345 482//79
f 479//388 483//391 484//392
f 479//388 484//392 478//387
f 485//393 475//383 474//384
f 474//384 486//394 485//393
f 487//395 417//352 488//396
f 487//395 418//37 417//352
f 460//82 457//374 459//85
f 460//82 482//79 406//345
f 489//397 419//353 490//398
f 452//81 405//344 407//81
f 491//97 361//314 400//340
f 491//97 362//315 361//314
f 362//315 369//315 363//316
f 492//399 493//400 494//401
f 432//90 426//357 425//356
f 392//63 410//348 390//333
f 468//379 449//368 467//378
f 401//17 400//340 403//342
f 402//341 491//97 400//340
f 494//401 495//402 492//399
f 496//403 367//319 497//404
f 496//403 364//317 367//319
f 493//400 496//403 497//404
f 493//400 497//404 494//401
f 480//389 366//318 365//318
f 481//390 498//405 499//406
f 500//100 385//330 501//25
f 483//391 502//407 484//392
f 483//391 503//407 502//407
f 504//408 422//354 505//44
f 498//405 481//390 480//389
f 506//409 499//406 498//405
f 499//406 506//409 507//409
f 455//372 508//410 509//411
f 510//412 511//413 486//394
f 511//413 485//393 486//394
f 511//413 510//412 512//412
f 399//339 461//376 397//337
f 388//57 387//332 435//332
f 398//338 397//337 413//350
f 398//338 411//349 412//338
f 434//106 435//332 433//363
f 513//94 514//414 515//108
f 516//415 451//344 452//81
f 517//416 516//415 515//108
f 517//416 451//344 516//415
f 514//414 513//94 518//417
f 514//414 517//416 515//108
f 430//361 433//363 428//359
f 462//91 468//379 461//376
f 429//360 428//359 519//418
f 520//419 438//51 521//420
f 520//419 522//421 523//109
f 524//422 525//423 526//424
f 527//118 528//425 529//426
f 527//118 530//427 524//422
f 521//420 437//364 531//167
f 521//420 438//51 437//364
f 522//421 520//419 521//420
f 522//421 532//428 533//219
f 508//410 534//429 535//430
f 508//410 455//372 454//371
f 488//396 417//352 536//431
f 465//331 416//351 415//24
f 465//331 464//331 537//142
f 446//274 456//373 447//54
f 442//365 441//50 469//49
f 439//266 436//50 441//50
f 439//266 442//365 538//166
f 470//380 539//164 442//365
f 470//380 469//49 471//381
f 472//382 540//432 470//380
f 472//382 471//381 541//433
f 456//373 542//434 543//173
f 454//371 543//173 534//429
f 454//371 453//370 456//373
f 423//322 371//13 421//42
f 423//322 544//322 371//13
f 422//354 545//435 546//158
f 422//354 421//42 505//44
f 422//354 504//408 547//436
f 422//354 548//131 423//322
f 374//323 373//13 372//322
f 419//353 549//129 550//437
f 419//353 551//198 490//398
f 419//353 489//397 420//39
f 419//353 375//41 374//323
f 416//351 537//142 552//152
f 416//351 465//331 537//142
f 417//352 552//152 553//155
f 417//352 414//36 416//351
f 408//346 394//334 554//438
f 408//346 555//439 395//335
f 445//274 542//434 446//274
f 445//274 446//274 443//53
f 444//366 443//53 393//27
f 444//366 556//434 445//274
f 395//335 444//366 393//27
f 395//335 557//144 444//366
f 386//331 558//142 464//331
f 385//330 500//100 559//440
f 385//330 560//143 386//331
f 385//330 561//210 562//140
f 385//330 384//26 501//25
f 544//322 423//322 563//127
f 372//322 563//127 564//127
f 372//322 371//13 544//322
f 440//266 439//266 565//166
f 437//364 565//166 531//167
f 437//364 436//50 440//266
f 529//426 566//441 527//118
f 529//426 567//442 568//443
f 569//444 570//445 571//125
f 569//444 572//446 573//447
f 574//448 575//449 576//120
f 574//448 577//450 578//451
f 530//427 527//118 566//441
f 525//423 524//422 530//427
f 525//423 577//450 526//424
f 525//423 578//451 577//450
f 572//446 569//444 579//119
f 571//125 579//119 569//444
f 570//445 567//442 571//125
f 567//442 529//426 528//425
f 567//442 570//445 568//443
f 575//449 574//448 580//452
f 575//449 581//453 582//121
f 582//121 576//120 575//449
f 581//453 573//447 572//446
f 581//453 572//446 582//121
f 578//451 580//452 574//448
f 583//454 584//455 585//222
f 586//456 587//457 588//458
f 586//456 589//459 590//460
f 591//461 592//455 593//462
f 564//127 374//323 372//322
f 564//127 549//129 374//323
f 563//127 372//322 544//322
f 594//463 595//464 596//465
f 594//463 597//466 591//461
f 595//464 598//467 599//468
f 598//467 600//469 601//470
f 598//467 601//470 599//468
f 560//143 385//330 562//140
f 602//471 603//472 604//174
f 605//473 606//474 607//475
f 605//473 608//176 609//476
f 609//476 601//470 600//469
f 610//477 611//478 612//479
f 613//480 583//454 585//222
f 613//480 614//133 615//481
f 615//481 616//482 617//483
f 618//484 619//191 620//191
f 555//439 408//346 621//485
f 555//439 557//144 395//335
f 622//486 612//479 611//478
f 606//474 622//486 623//478
f 552//152 417//352 416//351
f 549//129 419//353 374//323
f 548//131 563//127 423//322
f 548//131 422//354 546//158
f 603//472 624//487 625//488
f 626//489 627//490 628//491
f 624//487 629//492 630//200
f 631//471 602//471 632//174
f 633//493 631//471 634//216
f 633//493 635//494 626//489
f 538//166 442//365 539//164
f 565//166 437//364 440//266
f 565//166 439//266 538//166
f 556//434 444//366 557//144
f 623//478 607//475 606//474
f 604//174 603//472 636//495
f 616//482 615//481 614//133
f 617//483 637//496 638//497
f 639//498 592//455 584//455
f 640//484 641//499 619//191
f 642//500 643//501 644//195
f 542//434 456//373 446//274
f 542//434 445//274 556//434
f 543//173 454//371 456//373
f 645//502 620//191 646//188
f 645//502 647//189 643//501
f 648//503 649//504 610//477
f 558//142 386//331 560//143
f 558//142 537//142 464//331
f 607//475 650//175 605//473
f 637//496 617//483 616//482
f 637//496 651//505 652//506
f 637//496 652//506 638//497
f 608//176 605//473 650//175
f 596//465 653//184 594//463
f 539//164 470//380 540//432
f 540//432 472//382 654//507
f 601//470 609//476 608//176
f 599//468 596//465 595//464
f 655//508 656//509 657//510
f 656//509 655//508 658//511
f 656//509 659//512 660//513
f 589//459 661//514 590//460
f 589//459 662//515 661//514
f 589//459 586//456 588//458
f 597//466 594//463 653//184
f 646//188 647//189 645//502
f 592//455 591//461 597//466
f 592//455 639//498 593//462
f 620//191 645//502 618//484
f 659//512 656//509 658//511
f 660//513 663//516 664//517
f 665//518 657//510 666//519
f 665//518 655//508 657//510
f 553//155 536//431 417//352
f 644//195 643//501 647//189
f 551//198 419//353 550//437
f 619//191 618//484 640//484
f 584//455 583//454 639//498
f 585//222 667//520 613//480
f 668//521 669//522 670//523
f 671//521 669//522 668//521
f 625//488 636//495 603//472
f 625//488 624//487 630//200
f 651//505 672//203 648//503
f 651//505 648//503 652//506
f 614//133 613//480 667//520
f 669//522 673//524 670//523
f 673//524 588//458 587//457
f 587//457 670//523 673//524
f 662//515 674//525 661//514
f 662//515 675//526 674//525
f 561//210 385//330 559//440
f 676//527 677//527 664//517
f 663//516 660//513 659//512
f 663//516 676//527 664//517
f 545//435 422//354 547//436
f 675//526 678//528 674//525
f 678//528 675//526 679//528
f 534//429 508//410 454//371
f 680//529 665//518 666//519
f 680//529 666//519 681//530
f 682//531 681//530 683//531
f 681//530 682//531 680//529
f 632//174 602//471 604//174
f 649//504 648//503 672//203
f 611//478 610//477 649//504
f 611//478 623//478 622//486
f 634//216 631//471 632//174
f 684//206 685//532 686//533
f 641//499 640//484 687//534
f 685//532 684//206 688//208
f 687//534 688//208 641//499
f 688//208 687//534 685//532
f 635//494 633//493 634//216
f 627//490 626//489 635//494
f 531//167 532//428 521//420
f 532//428 522//421 521//420
usemtl White
f 689//290 690//236 691//535
f 690//236 689//290 692//536
f 693//257 694//287 695//255
f 696//268 697//272 698//268
f 697//272 696//268 699//272
f 700//286 695//255 694//287
f 701//537 702//538 703//293
f 704//294 703//293 702//538
f 705//301 706//539 707//312
f 708//540 709//541 710//310
f 711//298 712//342 706//539
f 710//310 713//329 714//311
f 710//310 715//325 716//328
f 717//309 718//347 719//349
f 720//542 721//543 722//544
f 720//542 723//320 709//541
f 724//308 725//545 717//309
f 707//312 726//314 721//543
f 714//311 713//329 727//336
f 706//539 705//301 711//298
f 725//545 714//311 727//336
f 725//545 724//308 714//311
f 709//541 708//540 720//542
f 709//541 715//325 710//310
f 728//546 729//297 730//296
f 728//546 730//296 731//307
f 726//314 712//342 732//340
f 726//314 707//312 706//539
f 723//320 720//542 722//544
f 723//320 715//325 709//541
f 715//325 723//320 733//324
f 734//350 717//309 719//349
f 734//350 731//307 717//309
f 713//329 710//310 716//328
f 727//336 718//347 725//545
f 735//337 736//378 728//546
f 735//337 731//307 734//350
f 735//337 728//546 731//307
f 712//342 726//314 706//539
f 712//342 711//298 737//367
f 718//347 717//309 725//545
f 718//347 727//336 738//547
f 737//367 711//298 739//377
f 721//543 720//542 707//312
f 736//378 729//297 728//546
f 736//378 739//377 729//297
f 736//378 735//337 740//376
f 739//377 711//298 729//297
f 741//548 742//549 743//550
f 744//427 745//506 746//551
f 747//423 746//551 748//451
f 749//447 750//467 751//464
f 749//447 752//469 750//467
f 753//452 754//479 755//486
f 753//452 756//474 757//552
f 743//550 758//461 759//553
f 760//449 757//552 761//453
f 761//453 762//476 752//469
f 748//451 763//477 754//479
f 764//554 765//426 766//443
f 764//554 767//441 765//426
f 757//552 762//476 761//453
f 757//552 760//449 753//452
f 742//549 749//447 751//464
f 742//549 741//548 749//447
f 746//551 747//423 744//427
f 768//454 764//554 766//443
f 768//454 769//481 764//554
f 768//454 766//443 770//555
f 758//461 743//550 742//549
f 758//461 751//464 771//463
f 751//464 758//461 742//549
f 754//479 753//452 748//451
f 752//469 749//447 761//453
f 762//476 756//474 772//556
f 763//477 745//506 773//503
f 763//477 748//451 746//551
f 769//481 767//441 764//554
f 769//481 774//483 767//441
f 769//481 768//454 775//480
f 756//474 753//452 755//486
f 756//474 762//476 757//552
f 774//483 776//497 767//441
f 770//555 766//443 743//550
f 770//555 743//550 759//553
f 776//497 744//427 767//441
f 745//506 744//427 776//497
f 745//506 763//477 746//551
